<?xml version="1.0" standalone="no"?>
<!DOCTYPE svg PUBLIC "-//W3C//DTD SVG 1.1//EN" "http://www.w3.org/Graphics/SVG/1.1/DTD/svg11.dtd" >
<svg xmlns="http://www.w3.org/2000/svg">
<metadata></metadata>
<defs>
<font id="nimbus_sans_nov_d_otbold" horiz-adv-x="1105" >
<font-face units-per-em="2048" ascent="1638" descent="-410" />
<missing-glyph horiz-adv-x="512" />
<glyph unicode="&#xfb01;" horiz-adv-x="1128" d="M-12 807v182h162v51q0 97 14.5 149.5t52.5 92.5q81 90 270 90q16 0 142 -6v-201q-58 6 -94 6q-68 0 -93.5 -22t-25.5 -82v-78h196v-182h-192v-807h-270v807h-162zM768 0v989h270v-989h-270zM768 1135v231h270v-231h-270z" />
<glyph unicode="&#xfb02;" horiz-adv-x="1128" d="M-12 807v182h162v51q0 97 14.5 149.5t52.5 92.5q81 90 270 90q16 0 142 -6v-201q-58 6 -94 6q-68 0 -93.5 -22t-25.5 -82v-78h196v-182h-192v-807h-270v807h-162zM768 0v1366h270v-1366h-270z" />
<glyph horiz-adv-x="0" />
<glyph horiz-adv-x="682" />
<glyph unicode=" "  horiz-adv-x="512" />
<glyph unicode="&#x09;" horiz-adv-x="512" />
<glyph unicode="&#xa0;" horiz-adv-x="512" />
<glyph unicode="!" horiz-adv-x="559" d="M152 0v293h297v-293h-297zM158 997v369h286v-365l-75 -585h-138z" />
<glyph unicode="&#x22;" horiz-adv-x="733" d="M61 1366h240l-49 -549h-141zM432 1366h240l-49 -549h-142z" />
<glyph unicode="#" d="M37 428l22 166h213l25 170h-213l22 166h213l46 317h170l-43 -317h180l43 317h172l-45 -317h227l-22 -166h-230l-22 -170h229l-25 -166h-229l-47 -346h-172l49 346h-180l-49 -346h-170l49 346h-213zM444 594h181l22 170h-180z" />
<glyph unicode="$" d="M31 430h264q0 -223 201 -244v396q-123 35 -167.5 51.5t-90.5 42.5q-91 53 -133 123.5t-42 171.5q0 115 59.5 202.5t168.5 137.5q74 32 205 43v168h112v-168q200 -11 308.5 -112.5t107.5 -278.5h-252q-3 172 -164 190v-348l15 -4q11 -2 31 -7.5t28 -7.5q211 -56 299 -143 t88 -242q0 -121 -58.5 -216t-166.5 -152q-89 -47 -236 -53v-191h-112v191q-214 6 -339 127t-126 323zM317 993q0 -66 39.5 -101.5t139.5 -60.5v326q-179 -18 -179 -164zM608 186q197 24 197 183q0 82 -53 125q-25 19 -46.5 28t-91.5 29l-6 2v-367z" />
<glyph unicode="%" horiz-adv-x="1673" d="M47 985q0 179 85 275t243 96q150 0 231.5 -94.5t81.5 -268.5q0 -186 -81.5 -285.5t-235.5 -99.5q-155 0 -239.5 98t-84.5 279zM242 973q0 -120 29 -174t94 -54q68 0 98.5 59t30.5 189q0 115 -30 169.5t-93 54.5q-67 0 -98 -59t-31 -185zM360 -51l756 1431h168l-754 -1431 h-170zM983 338q0 184 85 282.5t243 98.5q149 0 231 -94.5t82 -266.5q0 -188 -82 -286.5t-239 -98.5q-154 0 -237 94t-83 271zM1178 342q0 -120 29.5 -174.5t95.5 -54.5q64 0 94 57.5t30 179.5q0 121 -29 176.5t-93 55.5q-66 0 -96.5 -57.5t-30.5 -182.5z" />
<glyph unicode="&#x26;" horiz-adv-x="1314" d="M51 375q0 126 81.5 233.5t227.5 171.5q-129 149 -129 283q0 139 104 230t263 91q154 0 255 -92t101 -233q0 -107 -61 -195.5t-176 -148.5l176 -215q37 61 49 159h236q-9 -92 -44.5 -182.5t-86.5 -152.5l276 -324h-330l-112 135q-75 -78 -175 -121t-206 -43 q-198 0 -323.5 113t-125.5 291zM315 383q0 -77 56.5 -130.5t138.5 -53.5q119 0 225 118l-235 285q-185 -92 -185 -219zM471 1073q0 -77 113 -199q5 5 8 7q135 79 135 184q0 54 -36.5 90.5t-90.5 36.5q-55 0 -92 -34t-37 -85z" />
<glyph unicode="'" horiz-adv-x="362" d="M61 1366h240l-49 -549h-141z" />
<glyph unicode="(" horiz-adv-x="612" d="M59 518q0 447 254 848h228q-104 -189 -159.5 -406.5t-55.5 -437.5q0 -229 51 -450q25 -110 54 -186.5t99 -217.5l9 -18h-228q-14 20 -82 147q-80 150 -125 340t-45 381z" />
<glyph unicode=")" horiz-adv-x="612" d="M72 -350q104 187 159.5 405.5t55.5 438.5q0 133 -11 233.5t-40 216.5q-26 113 -54 187t-98 217l-8 18h225q14 -20 82 -147q81 -150 125.5 -339t44.5 -382q0 -450 -254 -848h-227z" />
<glyph unicode="*" d="M205 1063l49 149l221 -84l-2 238h160l-6 -238l219 84l55 -149l-225 -74l139 -188l-125 -94l-141 198l-135 -198l-129 94l143 188z" />
<glyph unicode="+" d="M82 578v182h379v381h182v-381h381v-182h-381v-379h-182v379h-379z" />
<glyph unicode="," horiz-adv-x="477" d="M86 0v299h305v-236q0 -104 -23 -170.5t-75 -113.5q-89 -83 -207 -98v137q63 13 99 61.5t38 120.5h-137z" />
<glyph unicode="-" horiz-adv-x="518" d="M0 387v244h518v-244h-518z" />
<glyph unicode="." horiz-adv-x="477" d="M84 0v303h309v-303h-309z" />
<glyph unicode="/" horiz-adv-x="880" d="M-66 -350l635 1716h246l-633 -1716h-248z" />
<glyph unicode="0" d="M59 664q0 325 132 507.5t366 182.5q123 0 226 -59t159 -160q102 -182 102 -469q0 -320 -130 -503t-357 -183q-233 0 -365.5 181.5t-132.5 502.5zM328 651q0 -229 55.5 -339.5t169.5 -110.5t168.5 115t54.5 352q0 238 -53.5 351.5t-167.5 113.5q-121 0 -174 -113t-53 -369 z" />
<glyph unicode="1" d="M190 879v194q174 3 266.5 68.5t114.5 201.5h213v-1343h-272v879h-96h-99h-94h-33z" />
<glyph unicode="2" d="M51 0q-2 107 35.5 209t101.5 166q51 54 125 110.5t262 182.5q98 68 137.5 124.5t39.5 131.5q0 87 -53 140.5t-138 53.5q-210 0 -219 -295h-260q-2 14 -2 31q0 229 133.5 364.5t357.5 135.5q201 0 329 -114.5t128 -297.5q0 -197 -156 -332q-25 -23 -56.5 -45.5 t-197.5 -132.5q-147 -99 -225 -196h641v-236h-983z" />
<glyph unicode="3" d="M47 465h262q0 -121 60.5 -187.5t169.5 -66.5q98 0 159.5 56t61.5 145q0 99 -70 153q-55 47 -174 47q-42 0 -67 -4v195q20 -2 45 -2q235 0 235 168q0 73 -51.5 118.5t-134.5 45.5q-95 0 -147.5 -58.5t-55.5 -167.5h-260q8 207 132 327t333 120q198 0 322 -102t124 -263 q0 -98 -51 -170.5t-137 -95.5q112 -26 175.5 -108t63.5 -201q0 -191 -139.5 -312.5t-357.5 -121.5q-235 0 -367 129t-131 356z" />
<glyph unicode="4" d="M51 307v252l584 784h252v-808h172v-228h-172v-307h-266v307h-570zM274 530h353v502z" />
<glyph unicode="5" d="M41 395h268q7 -86 68.5 -140t150.5 -54q102 0 167 71t65 183q0 114 -64 182t-170 68q-67 0 -113.5 -26.5t-86.5 -86.5l-244 4l131 737h750v-235h-551l-58 -297q53 53 112 76.5t140 23.5q193 0 311.5 -120.5t118.5 -317.5q0 -212 -142.5 -347.5t-365.5 -135.5 q-217 0 -348 112t-139 303z" />
<glyph unicode="6" d="M68 643q0 330 140 520.5t384 190.5q181 0 295 -95t139 -266h-258q-38 152 -180 152q-216 0 -254 -369q0 -16 -2 -28q60 78 130.5 113.5t168.5 35.5q185 0 302.5 -123.5t117.5 -318.5q0 -206 -134 -340.5t-339 -134.5q-241 0 -375.5 174.5t-134.5 488.5zM356 449 q0 -106 60.5 -177t152.5 -71q91 0 152 70.5t61 174.5q0 106 -61 177t-152 71q-94 0 -153.5 -69t-59.5 -176z" />
<glyph unicode="7" d="M96 1085v248h916v-227q-11 -11 -13 -14q-10 -10 -55 -60q-179 -217 -267.5 -461t-107.5 -571h-282q1 162 66 376t170 407.5t216 301.5h-643z" />
<glyph unicode="8" d="M47 387q0 125 67 212t185 116q-95 32 -146 103.5t-51 174.5q0 155 128 258t323 103t323 -101t128 -256q0 -102 -51.5 -175t-145.5 -107q250 -69 250 -318q0 -187 -139 -302t-365 -115q-229 0 -367.5 111.5t-138.5 295.5zM319 403q0 -96 65 -156.5t167 -60.5 q104 0 168.5 59t64.5 156q0 94 -65.5 154.5t-167.5 60.5q-103 0 -167.5 -59t-64.5 -154zM350 977q0 -82 55.5 -131t147.5 -49q94 0 148.5 48.5t54.5 131.5q0 80 -54.5 127t-148.5 47q-92 0 -147.5 -48t-55.5 -126z" />
<glyph unicode="9" d="M55 877q0 204 138.5 340.5t345.5 136.5q116 0 214.5 -50t166.5 -143q61 -86 89.5 -196.5t28.5 -264.5q0 -330 -140 -525t-376 -195q-184 0 -304 97.5t-140 262.5h258q35 -154 184 -154q110 0 170.5 98.5t79.5 305.5q-62 -83 -129 -119.5t-160 -36.5q-185 0 -305.5 125.5 t-120.5 317.5zM324 885q0 -106 60.5 -176t152.5 -70q91 0 151 70t60 176q0 105 -60 176.5t-149 71.5q-94 0 -154.5 -70.5t-60.5 -177.5z" />
<glyph unicode=":" horiz-adv-x="509" d="M117 0v303h309v-303h-309zM117 686v303h309v-303h-309z" />
<glyph unicode=";" horiz-adv-x="509" d="M117 686v303h309v-303h-309zM123 0v299h305v-236q0 -104 -23 -170.5t-75 -113.5q-89 -83 -207 -98v137q63 13 99 61.5t38 120.5h-137z" />
<glyph unicode="&#x3c;" horiz-adv-x="1024" d="M68 567v246l886 463v-293l-575 -293l575 -295v-291z" />
<glyph unicode="=" d="M82 412v178h942v-178h-942zM82 750v178h942v-178h-942z" />
<glyph unicode="&#x3e;" horiz-adv-x="1024" d="M70 104v293l575 293l-575 295v291l886 -463v-246z" />
<glyph unicode="?" horiz-adv-x="1048" d="M66 928q10 227 135.5 349t347.5 122q204 0 329.5 -108t125.5 -285q0 -114 -53 -189.5t-210 -185.5q-49 -38 -69.5 -87t-20.5 -128h-254v14q1 111 15.5 168.5t52 103t127.5 117.5q68 56 92.5 95.5t24.5 95.5q0 69 -45 111t-119 42q-99 0 -148 -57t-53 -178h-278zM373 0 v293h297v-293h-297z" />
<glyph unicode="@" horiz-adv-x="1468" d="M51 684q0 196 95.5 360.5t261 259.5t362.5 95q176 0 325 -79.5t235.5 -216.5t86.5 -298q0 -118 -48.5 -219t-139.5 -172q-62 -47 -135.5 -75t-139.5 -28q-49 0 -92.5 21t-62.5 53q-108 -78 -201 -78q-115 0 -188.5 80t-73.5 205q0 115 58 223t153 174t196 66q53 0 91 -16 t92 -62l16 45h205l-164 -500q-3 0 -12 -37q-6 -15 -6 -26t11.5 -18t29.5 -7q63 0 125 53t100.5 137.5t38.5 170.5q0 126 -67 232.5t-182 168t-251 61.5q-117 0 -221.5 -44.5t-179.5 -120t-118.5 -181.5t-43.5 -225q0 -158 75 -290t205 -207.5t285 -75.5q141 0 268 72 t203 196h166q-37 -81 -73.5 -131t-98.5 -103q-207 -180 -473 -180q-146 0 -278 56.5t-227 152.5t-151.5 229t-56.5 279zM555 535q0 -47 20 -76t52 -29q54 0 94.5 45t75.5 143l43 127q20 58 20 95q0 35 -20 59.5t-49 24.5q-43 0 -89.5 -41t-78.5 -107q-29 -59 -48.5 -127 t-19.5 -114z" />
<glyph unicode="A" horiz-adv-x="1331" d="M-8 0l520 1368h307l520 -1368h-313l-108 305h-508l-111 -305h-307zM481 524h363l-180 516z" />
<glyph unicode="B" horiz-adv-x="1302" d="M98 0v1366h615q195 0 293 -49q83 -43 130.5 -122t47.5 -173q0 -93 -48.5 -166.5t-136.5 -114.5q54 -19 72.5 -28t44.5 -27q133 -95 133 -283q0 -110 -48.5 -198t-139.5 -142q-114 -63 -293 -63h-670zM395 236h301q130 0 183 36q69 48 69 150q0 58 -24.5 101t-69.5 63 q-50 24 -172 24h-287v-374zM395 813h273q114 0 168.5 39t54.5 121q0 83 -52.5 120t-170.5 37h-273v-317z" />
<glyph unicode="C" horiz-adv-x="1343" d="M59 684q0 316 187 515.5t483 199.5q239 0 407 -140t185 -352h-295q-23 116 -102.5 179t-200.5 63q-166 0 -264.5 -127t-98.5 -342q0 -214 97.5 -339.5t263.5 -125.5q133 0 212.5 79.5t98.5 231.5h299q-20 -257 -186 -408t-428 -151q-296 0 -477 197t-181 520z" />
<glyph unicode="D" horiz-adv-x="1366" d="M98 0v1366h551q154 0 263 -35t194 -112q100 -91 152.5 -224.5t52.5 -294.5q0 -352 -193 -542q-86 -86 -192 -122t-271 -36h-557zM395 252h230q106 0 168 20.5t108 71.5q109 118 109 346q0 209 -100.5 316.5t-295.5 107.5h-219v-862z" />
<glyph unicode="E" horiz-adv-x="1183" d="M98 0v1366h1024v-252h-727v-293h668v-235h-668v-334h742v-252h-1039z" />
<glyph unicode="F" horiz-adv-x="1067" d="M98 0v1366h961v-252h-664v-317h578v-236h-578v-561h-297z" />
<glyph unicode="G" horiz-adv-x="1413" d="M53 676q0 210 85 374.5t238.5 256.5t348.5 92q233 0 396 -135t186 -349h-289q-22 110 -100.5 172t-196.5 62q-172 0 -269.5 -125.5t-97.5 -345.5q0 -223 98.5 -346t276.5 -123q141 0 231.5 84.5t94.5 222.5h-303v219h573v-735h-190l-31 156q-152 -189 -408 -189 q-284 0 -463.5 198t-179.5 511z" />
<glyph unicode="H" horiz-adv-x="1353" d="M100 0v1366h297v-520h559v520h297v-1366h-297v594h-559v-594h-297z" />
<glyph unicode="I" horiz-adv-x="497" d="M100 0v1366h297v-1366h-297z" />
<glyph unicode="J" horiz-adv-x="976" d="M-4 455v55h276v-39q0 -134 23 -184q40 -78 147 -78q89 0 124.5 50.5t35.5 176.5v930h297v-920q0 -120 -18 -191.5t-64 -131.5q-120 -156 -364 -156q-142 0 -245 50.5t-157 146.5q-55 102 -55 291z" />
<glyph unicode="K" horiz-adv-x="1304" d="M98 0v1366h297v-565l535 565h379l-537 -541l586 -825h-377l-414 612l-172 -172v-440h-297z" />
<glyph unicode="L" horiz-adv-x="1083" d="M100 0v1366h297v-1114h668v-252h-965z" />
<glyph unicode="M" horiz-adv-x="1673" d="M100 0v1366h424l322 -981l309 981h420v-1366h-283l11 1038l-345 -1038h-235l-350 1010l10 -1010h-283z" />
<glyph unicode="N" horiz-adv-x="1351" d="M98 0v1366h303l568 -930l-4 930h286v-1366h-299l-571 930l4 -930h-287z" />
<glyph unicode="O" horiz-adv-x="1437" d="M53 682q0 325 186.5 521t497.5 196q293 0 477.5 -199.5t184.5 -517.5q0 -319 -185.5 -517t-484.5 -198q-200 0 -353.5 89t-238 251.5t-84.5 374.5zM354 684q0 -216 102 -342.5t275 -126.5q169 0 268 127t99 344q0 212 -99.5 338.5t-265.5 126.5q-175 0 -277 -125.5 t-102 -341.5z" />
<glyph unicode="P" horiz-adv-x="1222" d="M98 0v1366h549q138 0 219 -17.5t146 -60.5q178 -119 178 -360q0 -215 -148 -338q-63 -52 -142.5 -75t-197.5 -23h-307v-492h-297zM395 727h267q120 0 169 43q66 53 66 154q0 102 -76 153q-51 37 -176 37h-250v-387z" />
<glyph unicode="Q" horiz-adv-x="1427" d="M53 684q0 155 50.5 288.5t139.5 227t215 146.5t273 53q192 0 344 -90t237 -252t85 -367q0 -159 -48.5 -292t-136.5 -220l177 -160l-140 -151l-202 182q-133 -82 -330 -82q-296 0 -480 198t-184 519zM354 684q0 -214 101 -341.5t270 -127.5q65 0 127 23l-137 118l141 150 l148 -135q92 126 92 315q0 215 -100 340t-271 125q-169 0 -270 -127t-101 -340z" />
<glyph unicode="R" horiz-adv-x="1345" d="M100 0v1366h660q109 0 176.5 -13.5t124.5 -47.5q86 -51 132 -135.5t46 -190.5q0 -119 -57.5 -207.5t-159.5 -126.5q78 -24 120 -70t63.5 -133t31.5 -249q11 -130 41 -177l12 -16h-311q-25 49 -35 184q-9 139 -21 191.5t-44 93.5q-54 68 -213 68h-269v-537h-297zM397 756 h285q140 0 192 39q72 51 72 149q0 97 -60.5 141.5t-191.5 44.5h-297v-374z" />
<glyph unicode="S" horiz-adv-x="1218" d="M16 457h297q3 -62 16.5 -99.5t43.5 -68.5q82 -88 248 -88q115 0 182 48.5t67 131.5q0 46 -24.5 76.5t-79.5 52.5q-76 28 -268 80q-133 37 -208.5 69.5t-119.5 71.5q-104 93 -104 256q0 187 144 299.5t382 112.5q150 0 265 -48t181 -137q74 -99 80 -253h-284 q-7 101 -73.5 153.5t-185.5 52.5q-104 0 -163.5 -42t-59.5 -115q0 -70 56 -99q59 -32 276 -84q128 -31 200 -57t122 -59q165 -106 165 -299q0 -206 -151 -325.5t-412 -119.5q-278 0 -432 127.5t-160 362.5z" />
<glyph unicode="T" horiz-adv-x="1107" d="M-8 1114v252h1124v-252h-416v-1114h-297v1114h-411z" />
<glyph unicode="U" horiz-adv-x="1327" d="M78 563v803h297v-823q0 -86 10 -136.5t35 -87.5q70 -104 250 -104q152 0 215 74.5t63 253.5v823h297v-807q0 -154 -23 -244t-83 -165q-74 -94 -189.5 -138.5t-285.5 -44.5q-181 0 -302.5 50.5t-195.5 156.5q-49 69 -68.5 155.5t-19.5 233.5z" />
<glyph unicode="V" horiz-adv-x="1224" d="M-8 1366h311l307 -1024l312 1024h311l-455 -1366h-340z" />
<glyph unicode="W" horiz-adv-x="1806" d="M4 1366h299l221 -1004l240 1004h283l237 -995l223 995h297l-370 -1366h-297l-238 975l-227 -975h-303z" />
<glyph unicode="X" horiz-adv-x="1245" d="M-29 0l482 715l-445 651h350l271 -438l274 438h330l-438 -651l479 -715h-359l-299 475l-303 -475h-342z" />
<glyph unicode="Y" horiz-adv-x="1214" d="M-53 1366h340l321 -561l322 561h332l-508 -840v-526h-297v530z" />
<glyph unicode="Z" horiz-adv-x="1214" d="M29 0v238l733 876h-682v252h1079v-227l-739 -887h764v-252h-1155z" />
<glyph unicode="[" horiz-adv-x="636" d="M92 -350v1716h496v-197h-244v-1323h244v-196h-496z" />
<glyph unicode="\" horiz-adv-x="880" d="M66 1366h245l635 -1716h-248z" />
<glyph unicode="]" horiz-adv-x="636" d="M49 -154h244v1323h-244v197h496v-1716h-496v196z" />
<glyph unicode="^" horiz-adv-x="1024" d="M35 721l315 651h326l315 -651h-262l-217 453l-217 -453h-260z" />
<glyph unicode="_" horiz-adv-x="1024" d="M0 -96h1024v-183h-1024v183z" />
<glyph unicode="`" horiz-adv-x="1024" d="M201 1415h286l172 -274h-182z" />
<glyph unicode="a" horiz-adv-x="1052" d="M31 272q0 187 174 258q39 18 91 29t167 27q69 9 107.5 15.5t68 14.5t41.5 20.5t17 27.5t5 41q0 129 -178 129q-94 0 -137 -33t-57 -115h-256q12 163 127 246.5t329 83.5q234 0 351 -94q51 -41 68.5 -92t17.5 -158q0 -27 -2 -142q0 -102 -2 -190v-74q0 -107 7 -162 t27 -104h-276q-16 51 -16 96q-129 -123 -328 -123q-161 0 -253.5 80t-92.5 219zM309 283q0 -62 41 -97.5t111 -35.5q119 0 194 81q26 29 35.5 59t9.5 81v112q-32 -20 -69.5 -30.5t-120.5 -20.5q-114 -17 -157.5 -49.5t-43.5 -99.5z" />
<glyph unicode="b" horiz-adv-x="1148" d="M90 0v1366h270v-498q111 150 314 150q188 0 305 -142t117 -370q0 -236 -122 -384.5t-317 -148.5q-209 0 -309 152v-125h-258zM350 500q0 -141 65 -223t175 -82q106 0 169.5 84t63.5 223q0 137 -63.5 220t-169.5 83q-112 0 -176 -81t-64 -224z" />
<glyph unicode="c" horiz-adv-x="1064" d="M49 485q0 241 139 386t369 145q198 0 323 -100.5t142 -272.5h-266q-15 79 -67 123.5t-130 44.5q-113 0 -175 -83.5t-62 -235.5q0 -149 61 -231.5t170 -82.5q88 0 142 51.5t69 149.5h264q-26 -191 -151.5 -298.5t-323.5 -107.5q-227 0 -365.5 140t-138.5 372z" />
<glyph unicode="d" horiz-adv-x="1148" d="M51 500q0 235 118.5 376.5t315.5 141.5q98 0 176 -39t125 -111v498h271v-1366h-258v127q-101 -154 -299 -154q-204 0 -326.5 144t-122.5 383zM324 502q0 -142 63 -224.5t172 -82.5q113 0 175.5 80t62.5 225q0 142 -63.5 224.5t-172.5 82.5q-113 0 -175 -79.5t-62 -225.5z " />
<glyph unicode="e" horiz-adv-x="1083" d="M49 489q0 227 141.5 377t356.5 150q221 0 355 -151t134 -400v-41h-710q5 -125 63.5 -190.5t167.5 -65.5q75 0 123.5 33t79.5 106h260q-40 -152 -166 -243t-299 -91q-227 0 -366.5 142t-139.5 374zM326 598h434q-12 107 -67 165t-146 58t-151 -60t-70 -163z" />
<glyph unicode="f" horiz-adv-x="600" d="M-12 807v182h162v51q0 97 14.5 149.5t52.5 92.5q81 90 270 90q16 0 142 -6v-201q-58 6 -94 6q-68 0 -93.5 -22t-25.5 -82v-78h196v-182h-192v-807h-270v807h-162z" />
<glyph unicode="g" horiz-adv-x="1128" d="M51 516q0 226 118.5 363t313.5 137q101 0 168.5 -36.5t126.5 -121.5v131h258v-866q0 -117 -14 -185.5t-51 -125.5q-120 -181 -424 -181q-423 0 -463 310h272q13 -66 61 -96.5t136 -30.5q118 0 169.5 59.5t51.5 196.5v112q-104 -151 -301 -151q-194 0 -308 131t-114 354z M324 522q0 -135 60.5 -213t164.5 -78t165.5 78.5t61.5 212.5q0 129 -61 206t-162 77q-109 0 -169 -74.5t-60 -208.5z" />
<glyph unicode="h" horiz-adv-x="1099" d="M90 0v1366h270v-512q44 75 128.5 119.5t183.5 44.5q98 0 174 -36.5t119 -104.5q28 -44 39.5 -100.5t11.5 -147.5v-629h-271v582q0 63 -6.5 95.5t-23.5 57.5q-46 62 -144 62q-128 0 -182 -111q-17 -32 -23 -73.5t-6 -129.5v-483h-270z" />
<glyph unicode="i" horiz-adv-x="450" d="M90 0v989h270v-989h-270zM90 1135v231h270v-231h-270z" />
<glyph unicode="j" horiz-adv-x="450" d="M-78 -135q39 -2 51 -2q50 0 74 11t31 38q10 34 10 170v907h270v-989l2 -76q0 -91 -36.5 -156t-104.5 -96q-68 -30 -188 -30q-60 0 -109 4v219zM88 1135v231h270v-231h-270z" />
<glyph unicode="k" horiz-adv-x="1036" d="M90 0v1366h270v-731l349 354h321l-373 -366l416 -623h-330l-272 440l-111 -104v-336h-270z" />
<glyph unicode="l" horiz-adv-x="450" d="M90 0v1366h270v-1366h-270z" />
<glyph unicode="m" horiz-adv-x="1683" d="M90 0v989h258v-135q63 85 138 123.5t178 38.5q198 0 276 -164q122 164 326 164q160 0 246.5 -91.5t86.5 -258.5v-666h-270v590q0 96 -20 135q-19 33 -56 51.5t-84 18.5q-57 0 -102 -27t-68 -74q-20 -47 -20 -157v-537h-270v602q0 86 -21 127q-17 31 -52 48.5t-79 17.5 q-57 0 -103 -28t-71 -77q-23 -54 -23 -153v-537h-270z" />
<glyph unicode="n" horiz-adv-x="1099" d="M90 0v989h258v-137q64 86 143 125t187 39q95 0 170 -36t115 -99q29 -47 41 -104.5t12 -153.5v-623h-271v567q0 98 -16 142q-17 40 -58 63t-96 23q-63 0 -113 -29t-75 -80q-27 -62 -27 -174v-512h-270z" />
<glyph unicode="o" horiz-adv-x="1122" d="M49 494q0 236 143 379t379 143q224 0 363 -143.5t139 -376.5q0 -236 -140 -379.5t-370 -143.5q-231 0 -372.5 143.5t-141.5 377.5zM322 494q0 -151 63.5 -235.5t177.5 -84.5q112 0 175 85.5t63 236.5q0 148 -64 233.5t-174 85.5q-114 0 -177.5 -84.5t-63.5 -236.5z" />
<glyph unicode="p" horiz-adv-x="1148" d="M90 -350v1339h258v-123q108 150 307 150q198 0 319.5 -145.5t121.5 -381.5q0 -233 -117.5 -374.5t-312.5 -141.5q-197 0 -306 150v-473h-270zM350 489q0 -143 64 -224t176 -81q109 0 171 80.5t62 220.5q0 143 -63 226.5t-170 83.5q-114 0 -177 -80t-63 -226z" />
<glyph unicode="q" horiz-adv-x="1148" d="M51 489q0 239 121 383t322 144q206 0 305 -150v123h258v-1339h-271v475q-57 -78 -130.5 -115t-174.5 -37q-195 0 -312.5 140.5t-117.5 375.5zM324 483q0 -140 62 -219.5t171 -79.5q112 0 175 82t63 228q0 139 -63.5 220t-172.5 81q-111 0 -173 -82.5t-62 -229.5z" />
<glyph unicode="r" horiz-adv-x="708" d="M90 0v989h258v-182q107 203 320 203q32 0 61 -4v-250q-61 10 -106 10q-72 0 -130 -32t-92 -91q-23 -36 -32 -88t-9 -141v-414h-270z" />
<glyph unicode="s" horiz-adv-x="1007" d="M29 322h260q9 -86 59 -126t150 -40q83 0 132.5 33.5t49.5 89.5q0 51 -42 75.5t-181 55.5q-133 30 -188.5 47t-98.5 41q-57 32 -89 89.5t-32 127.5q0 143 113 222t317 79q252 0 365 -125q32 -37 47.5 -79t21.5 -110h-254q-11 71 -54 101.5t-132 30.5q-72 0 -111.5 -25.5 t-39.5 -71.5q0 -50 43 -72.5t200 -54.5q203 -42 283 -96q49 -32 76.5 -87.5t27.5 -121.5q0 -154 -123 -243t-335 -89q-219 0 -336.5 88.5t-128.5 260.5z" />
<glyph unicode="t" horiz-adv-x="604" d="M-25 807v182h166v299h271v-299h200v-182h-200v-467q0 -92 21 -117.5t97 -25.5q32 0 82 6v-207q-85 -10 -166 -10q-105 0 -167 21.5t-95 72.5q-26 39 -34.5 90t-8.5 180v457h-166z" />
<glyph unicode="u" horiz-adv-x="1101" d="M86 362v627h270v-547q0 -86 5 -121t22 -61q44 -65 145 -65q130 0 187 110q28 55 28 193v491h271v-989h-258v139q-118 -166 -328 -166q-180 0 -276 119q-35 44 -50.5 107t-15.5 163z" />
<glyph unicode="v" horiz-adv-x="935" d="M-23 989h285l211 -704l215 704h273l-336 -989h-306z" />
<glyph unicode="w" horiz-adv-x="1501" d="M-18 989h286l187 -696l166 696h264l170 -694l184 694h281l-314 -989h-280l-178 688l-168 -688h-283z" />
<glyph unicode="x" horiz-adv-x="960" d="M-37 0l361 522l-330 467h313l176 -270l172 270h303l-325 -461l366 -528h-313l-209 324l-207 -324h-307z" />
<glyph unicode="y" horiz-adv-x="972" d="M-23 989h293l228 -686l219 686h280l-362 -985q-58 -152 -92.5 -211.5t-89.5 -97.5q-77 -50 -202 -50q-19 0 -40 1l-27 2l-110 2v223h108q83 0 119.5 29.5t36.5 95.5q0 37 -8 61z" />
<glyph unicode="z" horiz-adv-x="937" d="M27 0v205l512 573h-473v211h837v-198l-512 -580h547v-211h-911z" />
<glyph unicode="{" horiz-adv-x="647" d="M55 397v234q60 15 87.5 56t27.5 116v278q0 168 92 234q45 34 95.5 41t252.5 10h11v-197h-27q-98 0 -135 -43q-22 -28 -29.5 -68t-7.5 -126v-178q0 -100 -25 -152.5t-94 -93.5q67 -41 93 -95.5t26 -154.5v-184q0 -86 9 -127t34 -66q14 -15 50 -25t79 -10h27v-196h-11 q-201 1 -252.5 9t-97.5 44q-47 37 -68.5 94.5t-21.5 149.5v264q0 86 -26.5 129t-88.5 57z" />
<glyph unicode="|" horiz-adv-x="1024" d="M365 -342v1708h294v-1708h-294z" />
<glyph unicode="}" horiz-adv-x="647" d="M27 -154h26q98 0 135 43q22 28 29.5 68.5t7.5 126.5v178q0 100 25 152.5t94 93.5q-67 41 -93 95.5t-26 154.5v184q0 86 -9 127t-34 66q-13 15 -49.5 24.5t-79.5 9.5h-26v197h10q201 -1 252.5 -9t97.5 -44q47 -37 68.5 -94.5t21.5 -149.5v-264q0 -86 27 -130t88 -57v-233 q-60 -15 -87.5 -56t-27.5 -116v-279q0 -167 -92 -233q-45 -34 -95.5 -41t-252.5 -10h-10v196z" />
<glyph unicode="~" horiz-adv-x="1366" d="M190 1255q112 275 304 275q68 0 231 -70q79 -35 106.5 -44t53.5 -9q43 0 79 30.5t72 98.5l144 -121q-62 -146 -135 -208t-185 -62q-41 0 -79 12.5t-148 61.5q-107 45 -152 45q-41 0 -75 -29t-72 -98z" />
<glyph unicode="&#xa1;" horiz-adv-x="559" d="M152 1073v293h297v-293h-297zM158 0v365l75 585h138l73 -581v-369h-286z" />
<glyph unicode="&#xa2;" d="M70 682q0 224 121.5 365.5t326.5 156.5v166h113v-166q177 0 295 -104.5t129 -268.5h-260q-8 74 -52.5 121.5t-111.5 53.5v-631q71 5 117.5 60t52.5 143h258q-15 -180 -134 -294.5t-294 -115.5v-201h-113v201q-96 6 -163.5 32.5t-127.5 82.5q-157 148 -157 399zM338 690 q0 -134 46 -215t134 -100v629q-180 -50 -180 -314z" />
<glyph unicode="&#xa3;" d="M68 594v158h122q-69 117 -69 239q0 163 128.5 263t338.5 100q226 0 351 -113.5t128 -320.5h-266q-3 101 -56 153.5t-151 52.5q-78 0 -128 -42.5t-50 -108.5q0 -59 33 -137q24 -52 34 -86h256v-158h-202q20 -66 20 -107q0 -75 -36.5 -136t-125.5 -138q93 41 172 41 q47 0 133 -21q86 -22 123 -22q102 0 176 80l117 -197q-53 -56 -134.5 -87.5t-172.5 -31.5q-57 0 -94 7t-140 36q-109 31 -174 31q-51 0 -96.5 -17t-105.5 -59l-119 177q112 79 160.5 151t48.5 158q0 56 -33 135h-188z" />
<glyph unicode="&#xa4;" horiz-adv-x="1325" d="M68 1221l143 145l127 -127q144 102 326 102q174 0 319 -100l125 125l143 -145l-125 -121q105 -150 105 -326q0 -168 -98 -317l122 -125l-141 -146l-125 125q-150 -106 -327 -106t-326 104l-125 -123l-141 146l123 123q-99 148 -99 319q0 172 99 320zM328 772 q0 -136 99 -235t235 -99q138 0 235.5 99t97.5 237q0 137 -97 235.5t-232 98.5q-141 0 -239.5 -97.5t-98.5 -238.5z" />
<glyph unicode="&#xa5;" d="M27 1333h292l236 -545l236 545h286l-250 -532h207v-152h-282l-68 -133v-37h283v-151h-283v-328h-266v328h-281v151h281v41l-66 129h-282v152h209z" />
<glyph unicode="&#xa6;" horiz-adv-x="1024" d="M365 313h294v-655h-294v655zM365 649v717h294v-717h-294z" />
<glyph unicode="&#xa7;" d="M49 588q0 97 53 169t146 101q-80 83 -80 191q0 138 112 227.5t285 89.5q175 0 282.5 -97.5t110.5 -258.5h-239q-4 75 -44.5 115t-109.5 40q-63 0 -101 -31.5t-38 -84.5q0 -47 33.5 -78.5t148.5 -89.5q262 -133 330 -185q119 -88 119 -225q0 -93 -53 -166.5t-144 -107.5 q56 -50 79.5 -98.5t23.5 -114.5q0 -148 -113 -241t-293 -93q-195 0 -306.5 100t-111.5 273h238q11 -86 54 -126t126 -40q66 0 108 35t42 90q0 42 -24.5 72t-88.5 67t-209 106q-119 56 -181 98t-93 85q-62 80 -62 178zM281 612q0 -51 53 -91t244 -136q51 -26 69 -37 q58 -32 74 -37q44 13 73 48t29 75q0 41 -23 67.5t-89 61.5q-30 17 -70 41q-37 21 -125 66q-121 59 -135 65q-47 -13 -73.5 -46t-26.5 -77z" />
<glyph unicode="&#xa8;" horiz-adv-x="1024" d="M182 1167v224h254v-224h-254zM584 1167v224h256v-224h-256z" />
<glyph unicode="&#xa9;" horiz-adv-x="1550" d="M59 682q0 145 56.5 278t152 229t227.5 153t277 57q197 0 362 -96t260 -262.5t95 -366.5q0 -190 -97 -353.5t-262 -259.5t-356 -96q-145 0 -277.5 57t-228.5 153t-152.5 228.5t-56.5 278.5zM201 684q0 -119 45.5 -227t122.5 -186t183 -124.5t222 -46.5q114 0 220.5 46.5 t183.5 124t123.5 184t46.5 221.5q0 162 -76 297.5t-207.5 213t-290.5 77.5q-156 0 -288 -77.5t-208.5 -211t-76.5 -291.5zM391 694q0 177 107.5 288.5t277.5 111.5q138 0 224.5 -70t115.5 -205h-170q-15 66 -58 101.5t-110 35.5q-98 0 -159.5 -72t-61.5 -188 q0 -117 64.5 -196.5t158.5 -79.5q68 0 113 39.5t51 105.5h170q-13 -128 -105 -205t-229 -77q-172 0 -280.5 115t-108.5 296z" />
<glyph unicode="&#xaa;" horiz-adv-x="708" d="M41 713q0 114 115 159q42 17 168 33q70 7 98.5 13.5t38.5 17t10 33.5q0 69 -109 69q-58 0 -83.5 -19t-34.5 -69h-176q15 209 301 209q152 0 227 -57q34 -26 45.5 -57t11.5 -93v-88l-2 -110v-43q0 -65 5 -96.5t20 -67.5h-191q-10 26 -14 49q-78 -66 -203 -66 q-106 0 -166.5 49t-60.5 134zM233 719q0 -34 24 -53t67 -19q66 0 105.5 34t39.5 91v53q-30 -14 -113 -24q-70 -9 -96.5 -27t-26.5 -55z" />
<glyph unicode="&#xab;" horiz-adv-x="796" d="M45 379v254l303 241v-233l-174 -137l174 -133v-228zM424 383v252l299 237v-233l-170 -133l170 -133v-226z" />
<glyph unicode="&#xac;" horiz-adv-x="1024" d="M68 336v258h886v-594h-286v336h-600z" />
<glyph unicode="&#xad;" horiz-adv-x="518" d="M0 387v244h518v-244h-518z" />
<glyph unicode="&#xae;" horiz-adv-x="1550" d="M59 684q0 145 57 277t152.5 228t227.5 153t276 57q197 0 362 -96t260 -262.5t95 -364.5q0 -190 -97 -353.5t-262 -259.5t-356 -96q-145 0 -277.5 57t-228.5 153t-152.5 228.5t-56.5 278.5zM201 686q0 -119 45.5 -227t122.5 -186t183 -124.5t222 -46.5q114 0 220.5 46.5 t183.5 124t123.5 184t46.5 221.5q0 162 -76 296.5t-208 212t-290 77.5q-156 0 -288 -77.5t-208.5 -210.5t-76.5 -290zM483 299v762h338q79 0 118 -9.5t75 -35.5q82 -60 82 -178q0 -60 -19.5 -99t-66.5 -73q41 -25 53.5 -60.5t15.5 -134.5q7 -100 13 -125q3 -21 43 -47h-211 q-14 35 -19 58t-6 71q-1 44 -2 66t-6 44t-10.5 29.5t-19.5 14t-29 7.5t-44 1h-126v-291h-179zM662 739h131q72 0 98.5 17.5t26.5 66.5q0 47 -25.5 63.5t-99.5 16.5h-131v-164z" />
<glyph unicode="&#xaf;" horiz-adv-x="1024" d="M199 1202v144h624v-144h-624z" />
<glyph unicode="&#xb0;" horiz-adv-x="774" d="M61 1051q0 136 95.5 231.5t232.5 95.5q135 0 229.5 -95.5t94.5 -233.5q0 -133 -96 -228.5t-230 -95.5q-135 0 -230.5 95.5t-95.5 230.5zM190 1051q0 -82 58 -141.5t139 -59.5q78 0 137.5 59.5t59.5 137.5q0 86 -58 146t-141 60q-78 0 -136.5 -60t-58.5 -142z" />
<glyph unicode="&#xb1;" d="M82 -27v183h942v-183h-942zM82 578v182h379v381h182v-381h381v-182h-381v-353h-182v353h-379z" />
<glyph unicode="&#xb2;" horiz-adv-x="753" d="M49 545q4 73 15.5 116t51 90t98 89t173.5 112q63 40 87 71.5t24 74.5q0 49 -32 78.5t-85 29.5q-65 0 -97.5 -42t-33.5 -132h-180q-2 10 -2 25q0 138 87 220.5t234 82.5q132 0 215.5 -70t83.5 -180q0 -120 -102 -203q-16 -13 -164 -106q-83 -53 -133 -103h403v-153h-643z " />
<glyph unicode="&#xb3;" horiz-adv-x="753" d="M47 819v15h182q-2 -72 34.5 -111t105.5 -39q60 0 97.5 31t37.5 82q0 54 -39 82t-113 28q-24 0 -47 -4v129h37q143 0 143 94q0 40 -30.5 65.5t-81.5 25.5q-119 0 -125 -136h-178q3 130 84 204.5t221 74.5q130 0 211.5 -62t81.5 -161q0 -108 -103 -158q133 -48 133 -184 q0 -115 -91 -189t-234 -74q-151 0 -238.5 77.5t-87.5 209.5z" />
<glyph unicode="&#xb4;" horiz-adv-x="1024" d="M365 1141l172 274h286l-276 -274h-182z" />
<glyph unicode="&#xb6;" d="M47 1008q0 103 44 182.5t126 122.5q56 29 121 41t172 12h510v-125h-88v-1591h-164v1591h-162v-1591h-164v1007q-12 -2 -28 -2q-163 0 -265 98t-102 255z" />
<glyph unicode="&#xb7;" horiz-adv-x="477" d="M84 358v304h309v-304h-309z" />
<glyph unicode="&#xb8;" horiz-adv-x="1024" d="M268 -381l37 80q85 -33 148 -33q46 0 74 20t28 52t-25.5 52t-66.5 20q-27 0 -70 -15l-41 37l115 168h90l-80 -121q46 10 76 10q74 0 121 -37.5t47 -97.5q0 -82 -64.5 -131t-171.5 -49q-104 0 -217 45z" />
<glyph unicode="&#xb9;" horiz-adv-x="753" d="M139 1065v129q114 0 173 38.5t71 121.5h149v-807h-188v518h-55h-62h-61h-27z" />
<glyph unicode="&#xba;" horiz-adv-x="761" d="M47 844q0 142 93 228.5t247 86.5q146 0 237 -87t91 -228t-92 -228.5t-242 -87.5q-149 0 -241.5 87.5t-92.5 228.5zM236 844q0 -86 39 -134t108 -48q67 0 105 49t38 135q0 85 -38.5 133.5t-104.5 48.5q-70 0 -108.5 -48t-38.5 -136z" />
<glyph unicode="&#xbb;" horiz-adv-x="796" d="M72 147v226l170 133l-170 133v233l299 -237v-252zM446 143v228l175 133l-175 137v233l304 -241v-254z" />
<glyph unicode="&#xbc;" horiz-adv-x="1843" d="M133 1065v129q114 0 173 38.5t71 121.5h149v-807h-188v518h-55h-62h-61h-27zM469 0l750 1346h155l-745 -1346h-160zM1145 182v158l379 467h170v-477h110v-148h-110v-182h-181v182h-368zM1296 324h224v290z" />
<glyph unicode="&#xbd;" horiz-adv-x="1841" d="M133 1065v129q114 0 173 38.5t71 121.5h149v-807h-188v518h-55h-62h-61h-27zM469 0l750 1346h155l-745 -1346h-160zM1143 0q4 73 15.5 116t50.5 90t98.5 89t173.5 111q62 38 86 69.5t24 73.5q0 49 -31.5 78.5t-84.5 29.5q-129 0 -132 -172h-180q-2 10 -2 25 q0 137 87.5 219t234.5 82q132 0 215.5 -70t83.5 -180q0 -117 -103 -201q-24 -19 -163 -104q-92 -60 -134 -102h404v-154h-643z" />
<glyph unicode="&#xbe;" horiz-adv-x="1843" d="M39 819v15h182q-2 -72 34 -111t105 -39q60 0 98 31t38 82q0 54 -39 82t-113 28q-24 0 -47 -4v129h37q143 0 143 94q0 40 -30.5 65.5t-81.5 25.5q-119 0 -125 -136h-179q3 130 84.5 204.5t221.5 74.5q130 0 211 -62t81 -161q0 -109 -102 -158q133 -48 133 -184 q0 -115 -91 -189t-234 -74q-151 0 -238.5 77.5t-87.5 209.5zM467 0l750 1346h157l-747 -1346h-160zM1145 182v158l379 467h170v-477h110v-148h-110v-182h-181v182h-368zM1296 324h224v290z" />
<glyph unicode="&#xbf;" horiz-adv-x="1046" d="M66 358q0 114 53 190.5t209 184.5q49 38 69.5 88t20.5 129h254q-1 -74 -6 -117.5t-14.5 -82t-33.5 -69.5t-54.5 -61t-86.5 -75q-68 -56 -92.5 -96t-24.5 -95q0 -69 45 -111t119 -42q98 0 146.5 57t52.5 178h278q-11 -226 -135.5 -347.5t-345.5 -121.5q-204 0 -329 108 t-125 283zM399 1073v293h297v-293h-297z" />
<glyph unicode="&#xc0;" horiz-adv-x="1331" d="M-8 0l520 1368h307l520 -1368h-313l-108 305h-508l-111 -305h-307zM348 1729h314l172 -248h-201zM481 524h363l-180 516z" />
<glyph unicode="&#xc1;" horiz-adv-x="1331" d="M-8 0l520 1368h307l520 -1368h-313l-108 305h-508l-111 -305h-307zM481 524h363l-180 516zM498 1481l172 248h313l-285 -248h-200z" />
<glyph unicode="&#xc2;" horiz-adv-x="1331" d="M-8 0l520 1368h307l520 -1368h-313l-108 305h-508l-111 -305h-307zM315 1485l224 256h256l221 -256h-244l-110 133l-115 -133h-232zM481 524h363l-180 516z" />
<glyph unicode="&#xc3;" horiz-adv-x="1331" d="M-8 0l520 1368h307l520 -1368h-313l-108 305h-508l-111 -305h-307zM328 1489q9 55 22 87t39 64q73 91 158 91q48 0 137 -35q83 -33 125 -33q32 0 52.5 17.5t37.5 58.5h131q-44 -244 -225 -244q-30 0 -47.5 5t-87.5 32q-102 37 -129 37q-61 0 -80 -80h-133zM481 524h363 l-180 516z" />
<glyph unicode="&#xc4;" horiz-adv-x="1331" d="M-8 0l520 1368h307l520 -1368h-313l-108 305h-508l-111 -305h-307zM322 1505v219h264v-219h-264zM481 524h363l-180 516zM745 1505v219h265v-219h-265z" />
<glyph unicode="&#xc5;" horiz-adv-x="1331" d="M-8 0l520 1368h307l520 -1368h-313l-108 305h-508l-111 -305h-307zM438 1665q0 94 67.5 159.5t162.5 65.5q91 0 157 -67.5t66 -159.5q0 -94 -66.5 -160.5t-158.5 -66.5q-95 0 -161.5 67t-66.5 162zM481 524h363l-180 516zM557 1663q0 -44 32.5 -76.5t76.5 -32.5 q43 0 74.5 32.5t31.5 76.5t-31.5 76.5t-74.5 32.5q-45 0 -77 -32t-32 -77z" />
<glyph unicode="&#xc6;" horiz-adv-x="1839" d="M-45 0l655 1366h1164v-254h-644v-291h603v-235h-603v-334h660v-252h-942v297h-434l-138 -297h-321zM508 516h340v608h-66z" />
<glyph unicode="&#xc7;" horiz-adv-x="1343" d="M59 678q0 212 84.5 376t237 254.5t348.5 90.5q286 0 459 -191q110 -124 133 -301h-299q-14 95 -70 154q-40 41 -101.5 64.5t-127.5 23.5q-166 0 -264.5 -125.5t-98.5 -335.5q0 -191 78 -315q105 -156 269 -156q58 0 113.5 13.5t86.5 35.5q46 35 81 108t44 152h299 q-19 -255 -192 -410t-432 -149l-58 -86q49 10 76 10q71 0 118.5 -39.5t47.5 -97.5q0 -79 -65.5 -127.5t-172.5 -48.5q-96 0 -215 43l37 82q79 -33 152 -33q41 0 68.5 21t27.5 53q0 31 -26.5 50.5t-67.5 19.5q-27 0 -68 -17l-39 39l90 135q-116 20 -200.5 62t-153.5 112 q-97 98 -148 235.5t-51 297.5z" />
<glyph unicode="&#xc8;" horiz-adv-x="1183" d="M98 0v1366h1024v-252h-727v-293h668v-235h-668v-334h742v-252h-1039zM295 1729h313l172 -248h-200z" />
<glyph unicode="&#xc9;" horiz-adv-x="1183" d="M98 0v1366h1024v-252h-727v-293h668v-235h-668v-334h742v-252h-1039zM465 1481l172 248h313l-284 -248h-201z" />
<glyph unicode="&#xca;" horiz-adv-x="1183" d="M98 0v1366h1024v-252h-727v-293h668v-235h-668v-334h742v-252h-1039zM276 1485l224 256h256l221 -256h-244l-110 133l-115 -133h-232z" />
<glyph unicode="&#xcb;" horiz-adv-x="1183" d="M98 0v1366h1024v-252h-727v-293h668v-235h-668v-334h742v-252h-1039zM274 1505v219h265v-219h-265zM698 1505v219h265v-219h-265z" />
<glyph unicode="&#xcc;" horiz-adv-x="497" d="M-76 1729h314l172 -248h-201zM100 0v1366h297v-1366h-297z" />
<glyph unicode="&#xcd;" horiz-adv-x="497" d="M88 1481l172 248h313l-284 -248h-201zM100 0v1366h297v-1366h-297z" />
<glyph unicode="&#xce;" horiz-adv-x="497" d="M-80 1485l203 256h256l201 -256h-244l-90 133l-94 -133h-232zM100 0v1366h297v-1366h-297z" />
<glyph unicode="&#xcf;" horiz-adv-x="497" d="M-37 1505v219h240v-219h-240zM100 0v1366h297v-1366h-297zM295 1505v219h240v-219h-240z" />
<glyph unicode="&#xd0;" horiz-adv-x="1366" d="M-25 616v191h123v559h551q154 0 264 -35.5t195 -111.5q100 -91 152.5 -224.5t52.5 -294.5q0 -352 -193 -542q-86 -86 -192.5 -122t-272.5 -36h-557v616h-123zM395 252h230q106 0 169.5 20.5t108.5 71.5q109 118 109 344q0 209 -101.5 317.5t-296.5 108.5h-219v-307h301 v-191h-301v-364z" />
<glyph unicode="&#xd1;" horiz-adv-x="1351" d="M98 0v1366h303l568 -930l-4 930h286v-1366h-299l-571 930l4 -930h-287zM344 1489q9 55 22 86.5t40 64.5q73 91 157 91q48 0 137 -35q83 -33 125 -33q32 0 52.5 17.5t37.5 58.5h132q-44 -244 -226 -244q-30 0 -47.5 5t-87.5 32q-102 37 -129 37q-61 0 -80 -80h-133z" />
<glyph unicode="&#xd2;" horiz-adv-x="1437" d="M53 682q0 325 186.5 521t497.5 196q293 0 477.5 -199.5t184.5 -517.5q0 -319 -185.5 -517t-484.5 -198q-200 0 -353.5 89t-238 251.5t-84.5 374.5zM354 684q0 -216 102 -342.5t275 -126.5q169 0 268 127t99 344q0 212 -99.5 338.5t-265.5 126.5q-175 0 -277 -125.5 t-102 -341.5zM401 1729h314l172 -248h-201z" />
<glyph unicode="&#xd3;" horiz-adv-x="1437" d="M53 682q0 325 186.5 521t497.5 196q293 0 477.5 -199.5t184.5 -517.5q0 -319 -185.5 -517t-484.5 -198q-200 0 -353.5 89t-238 251.5t-84.5 374.5zM354 684q0 -216 102 -342.5t275 -126.5q169 0 268 127t99 344q0 212 -99.5 338.5t-265.5 126.5q-175 0 -277 -125.5 t-102 -341.5zM578 1481l172 248h313l-285 -248h-200z" />
<glyph unicode="&#xd4;" horiz-adv-x="1437" d="M53 682q0 325 186.5 521t497.5 196q293 0 477.5 -199.5t184.5 -517.5q0 -319 -185.5 -517t-484.5 -198q-200 0 -353.5 89t-238 251.5t-84.5 374.5zM354 684q0 -216 102 -342.5t275 -126.5q169 0 268 127t99 344q0 212 -99.5 338.5t-265.5 126.5q-175 0 -277 -125.5 t-102 -341.5zM375 1485l223 256h256l221 -256h-244l-110 133l-115 -133h-231z" />
<glyph unicode="&#xd5;" horiz-adv-x="1437" d="M53 682q0 325 186.5 521t497.5 196q293 0 477.5 -199.5t184.5 -517.5q0 -319 -185.5 -517t-484.5 -198q-200 0 -353.5 89t-238 251.5t-84.5 374.5zM354 684q0 -216 102 -342.5t275 -126.5q169 0 268 127t99 344q0 212 -99.5 338.5t-265.5 126.5q-175 0 -277 -125.5 t-102 -341.5zM395 1489q9 55 22 86.5t40 64.5q73 91 157 91q49 0 138 -35q83 -33 125 -33q32 0 52.5 17.5t37.5 58.5h131q-44 -244 -226 -244q-30 0 -47.5 5t-87.5 32q-102 37 -129 37q-61 0 -80 -80h-133z" />
<glyph unicode="&#xd6;" horiz-adv-x="1437" d="M53 682q0 325 186.5 521t497.5 196q293 0 477.5 -199.5t184.5 -517.5q0 -319 -185.5 -517t-484.5 -198q-200 0 -353.5 89t-238 251.5t-84.5 374.5zM354 684q0 -216 102 -342.5t275 -126.5q169 0 268 127t99 344q0 212 -99.5 338.5t-265.5 126.5q-175 0 -277 -125.5 t-102 -341.5zM381 1505v219h264v-219h-264zM805 1505v219h264v-219h-264z" />
<glyph unicode="&#xd7;" d="M127 371l297 299l-297 297l129 129l297 -297l299 297l129 -129l-297 -297l297 -299l-129 -129l-299 297l-297 -297z" />
<glyph unicode="&#xd8;" horiz-adv-x="1437" d="M53 682q0 329 187 523t503 194q107 0 174 -21t201 -96q3 -1 21 -10l125 141l139 -115l-139 -155q133 -186 133 -447q0 -163 -40 -283.5t-132 -234.5q-82 -98 -209 -154.5t-268 -56.5q-132 0 -244 33t-180 92l-134 -153l-135 122l138 160q-78 113 -109 214t-31 247z M354 680q0 -113 41 -240l557 641q-68 39 -117 54.5t-104 15.5q-175 0 -276 -126t-101 -345zM512 295q50 -43 101 -61.5t120 -18.5q177 0 283 152q46 66 65 137t19 174q0 74 -8 119.5t-37 130.5z" />
<glyph unicode="&#xd9;" horiz-adv-x="1327" d="M78 563v803h297v-823q0 -86 10 -136.5t35 -87.5q70 -104 250 -104q152 0 215 74.5t63 253.5v823h297v-807q0 -154 -23 -244t-83 -165q-74 -94 -189.5 -138.5t-285.5 -44.5q-181 0 -302.5 50.5t-195.5 156.5q-49 69 -68.5 155.5t-19.5 233.5zM338 1729h313l172 -248h-200z " />
<glyph unicode="&#xda;" horiz-adv-x="1327" d="M78 563v803h297v-823q0 -86 10 -136.5t35 -87.5q70 -104 250 -104q152 0 215 74.5t63 253.5v823h297v-807q0 -154 -23 -244t-83 -165q-74 -94 -189.5 -138.5t-285.5 -44.5q-181 0 -302.5 50.5t-195.5 156.5q-49 69 -68.5 155.5t-19.5 233.5zM502 1481l172 248h313 l-285 -248h-200z" />
<glyph unicode="&#xdb;" horiz-adv-x="1327" d="M78 563v803h297v-823q0 -86 10 -136.5t35 -87.5q70 -104 250 -104q152 0 215 74.5t63 253.5v823h297v-807q0 -154 -23 -244t-83 -165q-74 -94 -189.5 -138.5t-285.5 -44.5q-181 0 -302.5 50.5t-195.5 156.5q-49 69 -68.5 155.5t-19.5 233.5zM313 1485l224 256h256 l221 -256h-244l-111 133l-114 -133h-232z" />
<glyph unicode="&#xdc;" horiz-adv-x="1327" d="M78 563v803h297v-823q0 -86 10 -136.5t35 -87.5q70 -104 250 -104q152 0 215 74.5t63 253.5v823h297v-807q0 -154 -23 -244t-83 -165q-74 -94 -189.5 -138.5t-285.5 -44.5q-181 0 -302.5 50.5t-195.5 156.5q-49 69 -68.5 155.5t-19.5 233.5zM319 1505v219h265v-219h-265z M743 1505v219h265v-219h-265z" />
<glyph unicode="&#xdd;" horiz-adv-x="1214" d="M-53 1366h340l321 -561l322 561h332l-508 -840v-526h-297v530zM444 1481l172 248h314l-285 -248h-201z" />
<glyph unicode="&#xde;" horiz-adv-x="1228" d="M98 0v1366h297v-192h252q138 0 219 -17.5t146 -60.5q178 -119 178 -361q0 -213 -148 -336q-63 -52 -142.5 -75t-197.5 -23h-307v-301h-297zM395 537h267q120 0 169 43q66 53 66 151q0 103 -76 154q-51 37 -176 37h-250v-385z" />
<glyph unicode="&#xdf;" horiz-adv-x="1095" d="M90 0v870q0 134 15 207.5t53 132.5q57 83 158.5 129.5t228.5 46.5q193 0 311.5 -98t118.5 -258q0 -94 -47.5 -166.5t-130.5 -101.5q117 -28 182 -118.5t65 -225.5q0 -104 -42 -193.5t-119 -152.5q-59 -46 -126.5 -66t-162.5 -20q-42 0 -121 6v211q49 -6 70 -6 q104 0 166.5 64t62.5 173q0 230 -268 230q-17 0 -31 -2v172h35q100 0 153.5 44.5t53.5 129.5q0 80 -49.5 129t-128.5 49q-50 0 -89.5 -20.5t-58.5 -55.5q-17 -30 -23 -69.5t-6 -118.5v-922h-270z" />
<glyph unicode="&#xe0;" horiz-adv-x="1052" d="M31 272q0 187 174 258q39 18 91 29t167 27q69 9 107.5 15.5t68 14.5t41.5 20.5t17 27.5t5 41q0 129 -178 129q-94 0 -137 -33t-57 -115h-256q12 163 127 246.5t329 83.5q234 0 351 -94q51 -41 68.5 -92t17.5 -158q0 -27 -2 -142q0 -102 -2 -190v-74q0 -107 7 -162 t27 -104h-276q-16 51 -16 96q-129 -123 -328 -123q-161 0 -253.5 80t-92.5 219zM215 1415h287l172 -274h-182zM309 283q0 -62 41 -97.5t111 -35.5q119 0 194 81q26 29 35.5 59t9.5 81v112q-32 -20 -69.5 -30.5t-120.5 -20.5q-114 -17 -157.5 -49.5t-43.5 -99.5z" />
<glyph unicode="&#xe1;" horiz-adv-x="1052" d="M31 272q0 187 174 258q39 18 91 29t167 27q69 9 107.5 15.5t68 14.5t41.5 20.5t17 27.5t5 41q0 129 -178 129q-94 0 -137 -33t-57 -115h-256q12 163 127 246.5t329 83.5q234 0 351 -94q51 -41 68.5 -92t17.5 -158q0 -27 -2 -142q0 -102 -2 -190v-74q0 -107 7 -162 t27 -104h-276q-16 51 -16 96q-129 -123 -328 -123q-161 0 -253.5 80t-92.5 219zM309 283q0 -62 41 -97.5t111 -35.5q119 0 194 81q26 29 35.5 59t9.5 81v112q-32 -20 -69.5 -30.5t-120.5 -20.5q-114 -17 -157.5 -49.5t-43.5 -99.5zM379 1141l172 274h287l-277 -274h-182z " />
<glyph unicode="&#xe2;" horiz-adv-x="1052" d="M31 272q0 187 174 258q39 18 91 29t167 27q69 9 107.5 15.5t68 14.5t41.5 20.5t17 27.5t5 41q0 129 -178 129q-94 0 -137 -33t-57 -115h-256q12 163 127 246.5t329 83.5q234 0 351 -94q51 -41 68.5 -92t17.5 -158q0 -27 -2 -142q0 -102 -2 -190v-74q0 -107 7 -162 t27 -104h-276q-16 51 -16 96q-129 -123 -328 -123q-161 0 -253.5 80t-92.5 219zM197 1141l213 274h247l213 -274h-221l-121 164l-122 -164h-209zM309 283q0 -62 41 -97.5t111 -35.5q119 0 194 81q26 29 35.5 59t9.5 81v112q-32 -20 -69.5 -30.5t-120.5 -20.5 q-114 -17 -157.5 -49.5t-43.5 -99.5z" />
<glyph unicode="&#xe3;" horiz-adv-x="1052" d="M31 272q0 187 174 258q39 18 91 29t167 27q69 9 107.5 15.5t68 14.5t41.5 20.5t17 27.5t5 41q0 129 -178 129q-94 0 -137 -33t-57 -115h-256q12 163 127 246.5t329 83.5q234 0 351 -94q51 -41 68.5 -92t17.5 -158q0 -27 -2 -142q0 -102 -2 -190v-74q0 -107 7 -162 t27 -104h-276q-16 51 -16 96q-129 -123 -328 -123q-161 0 -253.5 80t-92.5 219zM207 1161q17 109 73 173.5t134 64.5q29 0 53.5 -6.5t75.5 -28.5q83 -35 119 -35q29 0 46 17t31 57h123q-40 -236 -207 -236q-37 0 -68 10t-126 52q-27 12 -51 12q-31 0 -52.5 -21t-27.5 -59 h-123zM309 283q0 -62 41 -97.5t111 -35.5q119 0 194 81q26 29 35.5 59t9.5 81v112q-32 -20 -69.5 -30.5t-120.5 -20.5q-114 -17 -157.5 -49.5t-43.5 -99.5z" />
<glyph unicode="&#xe4;" horiz-adv-x="1052" d="M31 272q0 187 174 258q39 18 91 29t167 27q69 9 107.5 15.5t68 14.5t41.5 20.5t17 27.5t5 41q0 129 -178 129q-94 0 -137 -33t-57 -115h-256q12 163 127 246.5t329 83.5q234 0 351 -94q51 -41 68.5 -92t17.5 -158q0 -27 -2 -142q0 -102 -2 -190v-74q0 -107 7 -162 t27 -104h-276q-16 51 -16 96q-129 -123 -328 -123q-161 0 -253.5 80t-92.5 219zM203 1167v224h254v-224h-254zM309 283q0 -62 41 -97.5t111 -35.5q119 0 194 81q26 29 35.5 59t9.5 81v112q-32 -20 -69.5 -30.5t-120.5 -20.5q-114 -17 -157.5 -49.5t-43.5 -99.5zM604 1167 v224h256v-224h-256z" />
<glyph unicode="&#xe5;" horiz-adv-x="1052" d="M31 272q0 187 174 258q39 18 91 29t167 27q69 9 107.5 15.5t68 14.5t41.5 20.5t17 27.5t5 41q0 129 -178 129q-94 0 -137 -33t-57 -115h-256q12 163 127 246.5t329 83.5q234 0 351 -94q51 -41 68.5 -92t17.5 -158q0 -27 -2 -142q0 -102 -2 -190v-74q0 -107 7 -162 t27 -104h-276q-16 51 -16 96q-129 -123 -328 -123q-161 0 -253.5 80t-92.5 219zM309 283q0 -62 41 -97.5t111 -35.5q119 0 194 81q26 29 35.5 59t9.5 81v112q-32 -20 -69.5 -30.5t-120.5 -20.5q-114 -17 -157.5 -49.5t-43.5 -99.5zM315 1300q0 88 63 149.5t154 61.5 q85 0 147 -63.5t62 -149.5q0 -88 -62.5 -150.5t-150.5 -62.5t-150.5 63t-62.5 152zM432 1298q0 -40 28 -68t68 -28t68.5 28t28.5 68q0 38 -28.5 67.5t-66.5 29.5q-41 0 -69.5 -28.5t-28.5 -68.5z" />
<glyph unicode="&#xe6;" horiz-adv-x="1695" d="M31 270q0 80 34 142t97 96q55 30 108 43t224 37q128 19 168 40.5t40 73.5q0 65 -45 98.5t-131 33.5q-92 0 -137.5 -36t-54.5 -118h-260q6 84 31.5 139.5t76.5 95.5q60 47 152.5 74t193.5 27q117 0 202.5 -34t129.5 -97q56 63 135.5 97t171.5 34q97 0 187 -37.5 t157 -104.5q138 -144 138 -399q0 -25 -2 -43h-705q2 -125 60.5 -194.5t162.5 -69.5q148 0 211 141h258q-40 -155 -165 -245.5t-298 -90.5q-116 0 -211.5 44.5t-146.5 121.5q-144 -166 -416 -166q-173 0 -269.5 78t-96.5 219zM311 285q0 -64 43 -102t117 -38 q106 0 168.5 60.5t62.5 161.5v116q-32 -25 -64.5 -34t-129.5 -23q-112 -17 -154.5 -47.5t-42.5 -93.5zM940 592h440q-8 107 -66 168t-153 61q-114 0 -176 -90q-34 -45 -45 -139z" />
<glyph unicode="&#xe7;" horiz-adv-x="1064" d="M49 492q0 232 143.5 378t370.5 146q113 0 208.5 -38.5t158.5 -109.5q41 -46 63 -98t33 -129h-270q-34 170 -197 170q-110 0 -172.5 -84t-62.5 -233q0 -151 61.5 -234.5t173.5 -83.5q86 0 139 51.5t68 151.5h262q-25 -192 -154 -300t-333 -108l-62 -92q46 10 76 10 q75 0 121.5 -37.5t46.5 -97.5q0 -83 -64 -131.5t-170 -48.5t-219 45l37 80q85 -33 150 -33q44 0 72 20t28 52t-25.5 52t-66.5 20q-27 0 -70 -15l-39 37l99 145q-77 18 -116.5 33t-82.5 45q-100 71 -153.5 183.5t-53.5 253.5z" />
<glyph unicode="&#xe8;" horiz-adv-x="1083" d="M49 489q0 227 141.5 377t356.5 150q221 0 355 -151t134 -400v-41h-710q5 -125 63.5 -190.5t167.5 -65.5q75 0 123.5 33t79.5 106h260q-40 -152 -166 -243t-299 -91q-227 0 -366.5 142t-139.5 374zM244 1415h286l172 -274h-182zM326 598h434q-12 107 -67 165t-146 58 t-151 -60t-70 -163z" />
<glyph unicode="&#xe9;" horiz-adv-x="1083" d="M49 489q0 227 141.5 377t356.5 150q221 0 355 -151t134 -400v-41h-710q5 -125 63.5 -190.5t167.5 -65.5q75 0 123.5 33t79.5 106h260q-40 -152 -166 -243t-299 -91q-227 0 -366.5 142t-139.5 374zM326 598h434q-12 107 -67 165t-146 58t-151 -60t-70 -163zM393 1141 l172 274h287l-277 -274h-182z" />
<glyph unicode="&#xea;" horiz-adv-x="1083" d="M49 489q0 227 141.5 377t356.5 150q221 0 355 -151t134 -400v-41h-710q5 -125 63.5 -190.5t167.5 -65.5q75 0 123.5 33t79.5 106h260q-40 -152 -166 -243t-299 -91q-227 0 -366.5 142t-139.5 374zM217 1141l213 274h248l213 -274h-221l-121 164l-123 -164h-209zM326 598 h434q-12 107 -67 165t-146 58t-151 -60t-70 -163z" />
<glyph unicode="&#xeb;" horiz-adv-x="1083" d="M49 489q0 227 141.5 377t356.5 150q221 0 355 -151t134 -400v-41h-710q5 -125 63.5 -190.5t167.5 -65.5q75 0 123.5 33t79.5 106h260q-40 -152 -166 -243t-299 -91q-227 0 -366.5 142t-139.5 374zM223 1167v224h254v-224h-254zM326 598h434q-12 107 -67 165t-146 58 t-151 -60t-70 -163zM625 1167v224h256v-224h-256z" />
<glyph unicode="&#xec;" horiz-adv-x="450" d="M-72 1415h273l172 -274h-168zM90 0v989h270v-989h-270z" />
<glyph unicode="&#xed;" horiz-adv-x="450" d="M80 1141l172 274h272l-276 -274h-168zM90 0v989h270v-989h-270z" />
<glyph unicode="&#xee;" horiz-adv-x="450" d="M-76 1141l178 274h248l178 -274h-204l-101 164l-104 -164h-195zM90 0v989h270v-989h-270z" />
<glyph unicode="&#xef;" horiz-adv-x="450" d="M-49 1167v224h233v-224h-233zM90 0v989h270v-989h-270zM266 1167v224h234v-224h-234z" />
<glyph unicode="&#xf0;" horiz-adv-x="1122" d="M49 494q0 226 135.5 375t339.5 149q34 0 99 -8l-66 129l-156 -66l-49 135l150 62l-49 102l155 68l58 -101l161 64l64 -127l-143 -59l159 -256q99 -159 132.5 -253t33.5 -212q0 -235 -140.5 -380t-367.5 -145q-233 0 -374.5 144t-141.5 379zM322 494q0 -152 63.5 -237 t177.5 -85q112 0 175 86t63 238q0 149 -64 235t-174 86q-114 0 -177.5 -84.5t-63.5 -238.5z" />
<glyph unicode="&#xf1;" horiz-adv-x="1099" d="M90 0v989h258v-137q64 86 143 125t187 39q95 0 170 -36t115 -99q29 -47 41 -104.5t12 -153.5v-623h-271v567q0 98 -16 142q-17 40 -58 63t-96 23q-63 0 -113 -29t-75 -80q-27 -62 -27 -174v-512h-270zM231 1161q17 109 73 173.5t134 64.5q29 0 53.5 -6.5t75.5 -28.5 q83 -35 119 -35q29 0 46.5 17t31.5 57h123q-40 -236 -207 -236q-37 0 -69 10.5t-126 51.5q-27 12 -51 12q-31 0 -52.5 -21t-27.5 -59h-123z" />
<glyph unicode="&#xf2;" horiz-adv-x="1122" d="M49 494q0 236 143 379t379 143q224 0 363 -143.5t139 -376.5q0 -236 -140 -379.5t-370 -143.5q-231 0 -372.5 143.5t-141.5 377.5zM250 1415h287l172 -274h-183zM322 494q0 -151 63.5 -235.5t177.5 -84.5q112 0 175 85.5t63 236.5q0 148 -64 233.5t-174 85.5 q-114 0 -177.5 -84.5t-63.5 -236.5z" />
<glyph unicode="&#xf3;" horiz-adv-x="1122" d="M49 494q0 236 143 379t379 143q224 0 363 -143.5t139 -376.5q0 -236 -140 -379.5t-370 -143.5q-231 0 -372.5 143.5t-141.5 377.5zM322 494q0 -151 63.5 -235.5t177.5 -84.5q112 0 175 85.5t63 236.5q0 148 -64 233.5t-174 85.5q-114 0 -177.5 -84.5t-63.5 -236.5z M414 1141l172 274h286l-276 -274h-182z" />
<glyph unicode="&#xf4;" horiz-adv-x="1122" d="M49 494q0 236 143 379t379 143q224 0 363 -143.5t139 -376.5q0 -236 -140 -379.5t-370 -143.5q-231 0 -372.5 143.5t-141.5 377.5zM225 1141l213 274h248l213 -274h-221l-121 164l-123 -164h-209zM322 494q0 -151 63.5 -235.5t177.5 -84.5q112 0 175 85.5t63 236.5 q0 148 -64 233.5t-174 85.5q-114 0 -177.5 -84.5t-63.5 -236.5z" />
<glyph unicode="&#xf5;" horiz-adv-x="1122" d="M49 494q0 236 143 379t379 143q224 0 363 -143.5t139 -376.5q0 -236 -140 -379.5t-370 -143.5q-231 0 -372.5 143.5t-141.5 377.5zM240 1161q17 109 72.5 173.5t133.5 64.5q29 0 53.5 -6.5t75.5 -28.5q83 -35 119 -35q29 0 46.5 17t31.5 57h123q-40 -236 -207 -236 q-37 0 -68 10t-126 52q-27 12 -52 12q-31 0 -52.5 -21t-27.5 -59h-122zM322 494q0 -151 63.5 -235.5t177.5 -84.5q112 0 175 85.5t63 236.5q0 148 -64 233.5t-174 85.5q-114 0 -177.5 -84.5t-63.5 -236.5z" />
<glyph unicode="&#xf6;" horiz-adv-x="1122" d="M49 494q0 236 143 379t379 143q224 0 363 -143.5t139 -376.5q0 -236 -140 -379.5t-370 -143.5q-231 0 -372.5 143.5t-141.5 377.5zM231 1167v224h254v-224h-254zM322 494q0 -151 63.5 -235.5t177.5 -84.5q112 0 175 85.5t63 236.5q0 148 -64 233.5t-174 85.5 q-114 0 -177.5 -84.5t-63.5 -236.5zM633 1167v224h256v-224h-256z" />
<glyph unicode="&#xf7;" d="M82 578v182h942v-182h-942zM416 322q0 57 41 97t100 40q55 0 95 -40.5t40 -96.5q0 -58 -40 -99t-97 -41q-58 0 -98.5 40.5t-40.5 99.5zM416 1018q0 57 41 97t100 40q55 0 95 -40.5t40 -96.5q0 -58 -40 -98.5t-97 -40.5q-59 0 -99 40.5t-40 98.5z" />
<glyph unicode="&#xf8;" horiz-adv-x="1146" d="M61 498q0 146 64.5 264.5t179 186t254.5 67.5q93 0 177 -22t136 -60l107 115l100 -95l-102 -116q108 -123 108 -322q0 -246 -137.5 -394.5t-363.5 -148.5q-174 0 -305 80l-115 -121l-101 99l107 119q-66 108 -87.5 178t-21.5 170zM328 489q0 -61 24 -145l357 426 q-61 45 -142 45q-109 0 -174 -88.5t-65 -237.5zM436 219q41 -28 67 -36.5t66 -8.5q117 0 182.5 84.5t65.5 233.5q0 64 -29 155z" />
<glyph unicode="&#xf9;" horiz-adv-x="1101" d="M86 362v627h270v-547q0 -86 5 -121t22 -61q44 -65 145 -65q130 0 187 110q28 55 28 193v491h271v-989h-258v139q-118 -166 -328 -166q-180 0 -276 119q-35 44 -50.5 107t-15.5 163zM244 1415h286l172 -274h-182z" />
<glyph unicode="&#xfa;" horiz-adv-x="1101" d="M86 362v627h270v-547q0 -86 5 -121t22 -61q44 -65 145 -65q130 0 187 110q28 55 28 193v491h271v-989h-258v139q-118 -166 -328 -166q-180 0 -276 119q-35 44 -50.5 107t-15.5 163zM408 1141l172 274h286l-276 -274h-182z" />
<glyph unicode="&#xfb;" horiz-adv-x="1101" d="M86 362v627h270v-547q0 -86 5 -121t22 -61q44 -65 145 -65q130 0 187 110q28 55 28 193v491h271v-989h-258v139q-118 -166 -328 -166q-180 0 -276 119q-35 44 -50.5 107t-15.5 163zM217 1141l213 274h248l213 -274h-221l-121 164l-123 -164h-209z" />
<glyph unicode="&#xfc;" horiz-adv-x="1101" d="M86 362v627h270v-547q0 -86 5 -121t22 -61q44 -65 145 -65q130 0 187 110q28 55 28 193v491h271v-989h-258v139q-118 -166 -328 -166q-180 0 -276 119q-35 44 -50.5 107t-15.5 163zM223 1167v224h254v-224h-254zM625 1167v224h256v-224h-256z" />
<glyph unicode="&#xfd;" horiz-adv-x="972" d="M-23 989h293l228 -686l219 686h280l-362 -985q-58 -152 -92.5 -211.5t-89.5 -97.5q-89 -58 -242 -49l-27 2l-110 2v223h108q83 0 119.5 29.5t36.5 95.5q0 37 -8 61zM340 1141l172 274h287l-277 -274h-182z" />
<glyph unicode="&#xfe;" horiz-adv-x="1148" d="M90 -350v1716h270v-500q105 150 297 150q197 0 318 -145.5t121 -381.5q0 -233 -117.5 -374.5t-312.5 -141.5q-197 0 -306 150v-473h-270zM350 489q0 -143 64 -224t176 -81q109 0 171 80.5t62 220.5q0 143 -63 226.5t-170 83.5q-114 0 -177 -80t-63 -226z" />
<glyph unicode="&#xff;" horiz-adv-x="972" d="M-23 989h293l228 -686l219 686h280l-362 -985q-58 -152 -92.5 -211.5t-89.5 -97.5q-89 -58 -242 -49l-27 2l-110 2v223h108q83 0 119.5 29.5t36.5 95.5q0 37 -8 61zM168 1167v224h254v-224h-254zM569 1167v224h256v-224h-256z" />
<glyph unicode="&#x152;" horiz-adv-x="2041" d="M53 672q0 208 81.5 374t227 258.5t328.5 92.5q233 0 330 -129v98h960v-252h-682v-293h625v-235h-625v-334h697v-252h-975v104q-129 -135 -344 -135q-133 0 -249 53t-198 145.5t-129 223t-47 281.5zM354 680q0 -207 98.5 -335t258.5 -128q140 0 221.5 86.5t81.5 235.5v292 q0 76 -13 121.5t-45 85.5q-83 109 -235 109q-166 0 -266.5 -127.5t-100.5 -339.5z" />
<glyph unicode="&#x153;" horiz-adv-x="1753" d="M49 494q0 233 137.5 377.5t360.5 144.5q231 0 338 -156q125 156 340 156q127 0 233.5 -56t163.5 -153q85 -144 82 -375h-711q1 -121 65.5 -191.5t172.5 -70.5q73 0 120.5 33t84.5 110h260q-50 -163 -171 -251.5t-296 -88.5q-126 0 -211 39.5t-144 124.5 q-60 -85 -143 -124.5t-201 -39.5q-218 0 -349.5 142.5t-131.5 378.5zM322 494q0 -152 57.5 -236t163.5 -84q104 0 159.5 85t55.5 245q0 147 -55 229t-154 82q-107 0 -167 -84.5t-60 -236.5zM989 592h445q-7 109 -65 169t-155 60q-96 0 -154.5 -59.5t-70.5 -169.5z" />
<glyph unicode="&#x178;" horiz-adv-x="1214" d="M-53 1366h340l321 -561l322 561h332l-508 -840v-526h-297v530zM268 1505v219h264v-219h-264zM692 1505v219h264v-219h-264z" />
<glyph unicode="&#x2c6;" horiz-adv-x="1024" d="M176 1141l213 274h248l213 -274h-221l-121 164l-123 -164h-209z" />
<glyph unicode="&#x2dc;" horiz-adv-x="1024" d="M184 1161q17 109 73 173.5t134 64.5q29 0 53.5 -6.5t75.5 -28.5q83 -35 119 -35q29 0 46.5 17t31.5 57h123q-40 -236 -207 -236q-37 0 -69 10.5t-126 51.5q-27 12 -51 12q-31 0 -52.5 -21t-27.5 -59h-123z" />
<glyph unicode="&#x2000;" horiz-adv-x="945" />
<glyph unicode="&#x2001;" horiz-adv-x="1890" />
<glyph unicode="&#x2002;" horiz-adv-x="945" />
<glyph unicode="&#x2003;" horiz-adv-x="1890" />
<glyph unicode="&#x2004;" horiz-adv-x="630" />
<glyph unicode="&#x2005;" horiz-adv-x="472" />
<glyph unicode="&#x2006;" horiz-adv-x="315" />
<glyph unicode="&#x2007;" horiz-adv-x="315" />
<glyph unicode="&#x2008;" horiz-adv-x="236" />
<glyph unicode="&#x2009;" horiz-adv-x="378" />
<glyph unicode="&#x200a;" horiz-adv-x="105" />
<glyph unicode="&#x2010;" horiz-adv-x="518" d="M0 387v244h518v-244h-518z" />
<glyph unicode="&#x2011;" horiz-adv-x="518" d="M0 387v244h518v-244h-518z" />
<glyph unicode="&#x2012;" horiz-adv-x="518" d="M0 387v244h518v-244h-518z" />
<glyph unicode="&#x2013;" d="M88 387v244h928v-244h-928z" />
<glyph unicode="&#x2014;" horiz-adv-x="1515" d="M0 387v244h1516v-244h-1516z" />
<glyph unicode="&#x2018;" horiz-adv-x="509" d="M102 768v233q0 104 23.5 173t75.5 120q80 77 207 92v-135q-63 -13 -99.5 -62.5t-38.5 -121.5h138v-299h-306z" />
<glyph unicode="&#x2019;" horiz-adv-x="509" d="M102 750v135q63 13 99.5 62t38.5 120h-138v299h306v-233q0 -104 -23.5 -173t-75.5 -118q-84 -81 -207 -92z" />
<glyph unicode="&#x201a;" horiz-adv-x="509" d="M102 0v299h306v-233q0 -104 -23.5 -173t-75.5 -118q-80 -77 -207 -92v135q63 13 99.5 62t38.5 120h-138z" />
<glyph unicode="&#x201c;" horiz-adv-x="880" d="M102 776v240q0 167 78 260q76 88 197 110v-126q-126 -35 -129 -189h129v-295h-275zM504 776v240q0 167 78 260q76 88 196 110v-126q-126 -35 -129 -189h129v-295h-274z" />
<glyph unicode="&#x201d;" horiz-adv-x="880" d="M102 758v129q126 30 129 186h-129v293h275v-238q0 -167 -78 -260q-76 -88 -197 -110zM504 758v129q126 30 129 186h-129v293h274v-238q0 -167 -78 -260q-76 -88 -196 -110z" />
<glyph unicode="&#x201e;" horiz-adv-x="880" d="M102 0v293h275v-238q0 -167 -78 -260q-80 -90 -197 -108v127q126 34 129 186h-129zM504 0v293h274v-238q0 -167 -78 -260q-80 -90 -196 -108v127q126 34 129 186h-129z" />
<glyph unicode="&#x2022;" horiz-adv-x="1366" d="M401 692q0 120 83.5 202.5t205.5 82.5q114 0 196.5 -83.5t82.5 -199.5q0 -118 -83 -201t-200 -83t-201 82.5t-84 199.5z" />
<glyph unicode="&#x2026;" horiz-adv-x="1429" d="M84 0v303h309v-303h-309zM561 0v303h309v-303h-309zM1038 0v303h310v-303h-310z" />
<glyph unicode="&#x202f;" horiz-adv-x="378" />
<glyph unicode="&#x2039;" horiz-adv-x="417" d="M45 379v256l301 237v-231l-172 -135l172 -135v-226z" />
<glyph unicode="&#x203a;" horiz-adv-x="417" d="M72 145v226l172 135l-172 135v231l301 -237v-256z" />
<glyph unicode="&#x205f;" horiz-adv-x="472" />
<glyph unicode="&#x2122;" horiz-adv-x="1771" d="M0 1212v154h698v-154h-252v-624h-194v624h-252zM764 588v778h270l191 -524l184 524h268v-778h-186l4 530l-197 -530h-151l-201 514l4 -514h-186z" />
<glyph unicode="&#x25fc;" horiz-adv-x="993" d="M0 0v993h993v-993h-993z" />
</font>
</defs>
</svg>
