<?xml version="1.0" standalone="no"?>
<!DOCTYPE svg PUBLIC "-//W3C//DTD SVG 1.1//EN" "http://www.w3.org/Graphics/SVG/1.1/DTD/svg11.dtd" >
<svg xmlns="http://www.w3.org/2000/svg">
<metadata></metadata>
<defs>
<font id="nimbus_sans_novus_d_otBdCn" horiz-adv-x="956" >
<font-face units-per-em="2048" ascent="1638" descent="-410" />
<missing-glyph horiz-adv-x="493" />
<glyph unicode="&#xfb01;" horiz-adv-x="925" d="M-27 848v182h136v57q0 119 19 173t71 86q68 40 215 40q65 0 112 -2v-186h-32h-51t-32.5 -7.5t-22 -13.5t-10 -30t-5.5 -46v-71h153v-182h-153v-848h-264v848h-136zM590 0v1030h264v-1030h-264zM590 1143v223h264v-223h-264z" />
<glyph unicode="&#xfb02;" horiz-adv-x="925" d="M-27 848v182h136v57q0 119 19 173t71 86q68 40 215 40q65 0 112 -2v-186h-32h-51t-32.5 -7.5t-22 -13.5t-10 -30t-5.5 -46v-71h153v-182h-153v-848h-264v848h-136zM590 0v1366h262v-1366h-262z" />
<glyph horiz-adv-x="0" />
<glyph horiz-adv-x="682" />
<glyph unicode=" "  horiz-adv-x="493" />
<glyph unicode="&#x09;" horiz-adv-x="493" />
<glyph unicode="&#xa0;" horiz-adv-x="493" />
<glyph unicode="!" horiz-adv-x="448" d="M92 924v442h266v-442l-34 -545h-195zM94 0v250h262v-250h-262z" />
<glyph unicode="&#x22;" horiz-adv-x="747" d="M68 1366h239l-49 -549h-141zM438 1366h240l-49 -549h-142z" />
<glyph unicode="#" d="M47 440l16 150h170l19 188h-170l16 150h170l31 297h154l-33 -297h168l30 297h154l-31 -297h168l-14 -150h-170l-20 -188h169l-16 -150h-168l-35 -325h-153l35 325h-168l-33 -325h-154l35 325h-170zM385 590h168l18 188h-165z" />
<glyph unicode="$" d="M29 414h256q2 -134 28.5 -187.5t98.5 -62.5v420q-206 72 -283.5 156.5t-77.5 236.5q0 280 242 360q70 20 119 23v188h120v-188q157 -7 255 -103t98 -241v-31h-246q1 81 -27.5 130t-79.5 54v-358q67 -27 117 -47q141 -56 205 -147t64 -238q0 -309 -263 -383 q-68 -18 -123 -21v-206h-120v206q-207 19 -296 120.5t-87 318.5zM317 1018q0 -121 95 -160v307q-44 -8 -69.5 -47t-25.5 -100zM532 168q52 10 80.5 58.5t28.5 125.5q0 145 -109 185v-369z" />
<glyph unicode="%" horiz-adv-x="1374" d="M47 1018q0 201 62.5 283.5t214.5 82.5q154 0 215 -81t61 -285q0 -203 -63.5 -285t-221.5 -82q-149 0 -208.5 82t-59.5 285zM242 1010q0 -130 17.5 -177t64.5 -47q49 0 65.5 46.5t16.5 185.5q0 138 -16.5 184.5t-65.5 46.5q-48 0 -65 -49.5t-17 -189.5zM299 -18l604 1400 h170l-602 -1400h-172zM772 348q0 201 62.5 284t216.5 83t215 -81.5t61 -285.5q0 -203 -64 -284.5t-223 -81.5q-148 0 -208 82t-60 284zM967 342q0 -131 17.5 -178t64.5 -47q51 0 67.5 46t16.5 185t-16.5 185.5t-65.5 46.5t-66.5 -49t-17.5 -189z" />
<glyph unicode="&#x26;" horiz-adv-x="1148" d="M39 356q0 120 63.5 216.5t204.5 191.5q-86 122 -112.5 181.5t-26.5 127.5q0 134 95 215.5t251 81.5q160 0 252 -77.5t92 -211.5q0 -98 -56 -180.5t-179 -167.5l202 -282q20 25 35.5 88t13.5 116h236q2 -99 -39.5 -219.5t-99.5 -187.5l180 -248h-291l-74 104 q-135 -129 -340 -129q-180 0 -286 95q-56 50 -88.5 126.5t-32.5 159.5zM297 379q0 -83 56 -139t139 -56q100 0 178 90l-232 326q-74 -53 -107.5 -105.5t-33.5 -115.5zM397 1092q0 -71 103 -201q73 62 102 106t29 93q0 52 -31.5 82t-85.5 30q-53 0 -85 -29.5t-32 -80.5z" />
<glyph unicode="'" horiz-adv-x="376" d="M68 1366h239l-49 -549h-141z" />
<glyph unicode="(" horiz-adv-x="589" d="M55 510q0 224 68 433t209 423h200q-114 -199 -166.5 -404.5t-52.5 -447.5q0 -243 52 -446t167 -410h-200q-132 197 -204.5 418.5t-72.5 433.5z" />
<glyph unicode=")" horiz-adv-x="589" d="M59 -342q114 201 167 406t53 446q0 244 -52 446.5t-168 409.5h199q134 -197 206.5 -418.5t72.5 -433.5q0 -224 -68 -432t-211 -424h-199z" />
<glyph unicode="*" d="M125 1094l51 145l223 -80v244h156v-244l223 80l51 -145l-221 -78l144 -195l-125 -94l-150 201l-149 -201l-125 94l143 195z" />
<glyph unicode="+" d="M55 575v189h328v328h188v-328h328v-189h-328v-327h-188v327h-328z" />
<glyph unicode="," horiz-adv-x="387" d="M63 0v301h259v-190q0 -136 -9.5 -197t-38.5 -115q-29 -53 -78 -80t-133 -38v131q60 14 82.5 53.5t22.5 134.5h-105z" />
<glyph unicode="-" horiz-adv-x="542" d="M0 438v228h543v-228h-543z" />
<glyph unicode="." horiz-adv-x="387" d="M63 0v301h261v-301h-261z" />
<glyph unicode="/" horiz-adv-x="808" d="M-39 -342l565 1708h211l-565 -1708h-211z" />
<glyph unicode="0" d="M51 659q0 209 18.5 328.5t61.5 198.5q106 180 350 180q241 0 340 -168q82 -138 82 -500q0 -319 -47 -471q-41 -131 -138.5 -193.5t-258.5 -62.5q-263 0 -350 222q-32 78 -45 180.5t-13 285.5zM326 633q0 -100 2.5 -170t9 -125.5t17 -89t27.5 -55.5t38.5 -30.5t52.5 -8.5 q40 0 65 13.5t43.5 45t28 94.5t13.5 150t4 223q0 127 -4 209t-13 142.5t-27 91t-43 44t-63 13.5q-106 0 -135 -150q-16 -88 -16 -397z" />
<glyph unicode="1" d="M115 963v174q159 -3 243 50t103 167h192v-1354h-268v963h-270z" />
<glyph unicode="2" d="M53 0q0 177 68 312.5t231 283.5q113 106 142.5 136t56.5 65q55 70 55 184q0 197 -141 197q-80 0 -114 -59.5t-34 -200.5h-260q0 192 62 290q104 156 352 156q408 0 408 -385q0 -185 -103 -309q-35 -43 -66 -73t-153 -142q-81 -71 -123 -127t-59 -115h510v-213h-832z" />
<glyph unicode="3" d="M49 393h264q5 -125 40.5 -180t111.5 -55q151 0 151 221q0 143 -59 196q-39 39 -166 39q-25 0 -45 -2v179h25q73 0 109 8t59 30q51 51 51 181q0 172 -131 172q-140 0 -140 -201v-14h-251q2 201 101.5 300t301.5 99q189 0 288 -90t99 -262q0 -121 -54.5 -201t-148.5 -100 q117 -19 178.5 -100.5t61.5 -219.5q0 -194 -100 -303q-107 -119 -336 -119q-206 0 -307.5 104t-102.5 318z" />
<glyph unicode="4" d="M41 287v223l453 844h286v-856h138v-211h-138v-287h-256v287h-483zM252 498h274v512z" />
<glyph unicode="5" d="M53 381h262q0 -116 35.5 -170.5t110.5 -54.5q92 0 125 98q28 82 28 199q0 135 -38 200.5t-117 65.5q-55 0 -91.5 -30.5t-48.5 -88.5l-245 6l49 731h708v-213h-501l-17 -192q-11 -105 -18 -135q69 116 244 116q348 0 348 -458q0 -246 -105.5 -365t-322.5 -119 q-207 0 -306.5 100.5t-99.5 309.5z" />
<glyph unicode="6" d="M51 627q0 232 18 354.5t64 202.5q107 182 367 182q183 0 279 -87t102 -257h-265q-3 160 -129 160q-91 0 -124 -87.5t-39 -340.5q50 71 108 101t146 30q335 0 335 -424q0 -248 -106 -369t-324 -121q-238 0 -342 158q-47 72 -68.5 190t-21.5 308zM336 449q0 -149 36.5 -220 t112.5 -71q152 0 152 268q0 133 -37 194.5t-117 61.5q-75 0 -111 -57t-36 -176z" />
<glyph unicode="7" d="M57 1104v233h836v-209q-157 -226 -264 -533t-129 -595h-289q28 291 145 595.5t279 508.5h-578z" />
<glyph unicode="8" d="M47 379q0 293 229 346q-44 8 -94 49q-100 81 -100 238q0 170 102 261t291 91q196 0 296.5 -87.5t100.5 -258.5q0 -117 -51.5 -195.5t-140.5 -97.5q110 -23 169.5 -111.5t59.5 -230.5q0 -199 -110 -309q-103 -103 -322 -103q-430 0 -430 408zM324 397q0 -127 37.5 -187 t117.5 -60t118 59.5t38 183.5q0 121 -38 178.5t-118 57.5q-155 0 -155 -232zM346 993q0 -188 131 -188q64 0 97.5 48.5t33.5 141.5q0 185 -129 185q-133 0 -133 -187z" />
<glyph unicode="9" d="M45 883q0 481 432 481q241 0 346 -160q82 -129 82 -499q0 -223 -18 -344t-62 -199q-110 -191 -370 -191q-183 0 -278.5 86.5t-98.5 255.5h262q3 -157 129 -157q57 0 90.5 30.5t46.5 94.5q25 132 25 268v37q-68 -133 -242 -133q-344 0 -344 430zM322 905q0 -132 36.5 -193 t114.5 -61q75 0 111.5 57t36.5 177q0 152 -35.5 222.5t-112.5 70.5q-78 0 -114.5 -66.5t-36.5 -206.5z" />
<glyph unicode=":" horiz-adv-x="387" d="M63 0v301h261v-301h-261zM63 729v301h261v-301h-261z" />
<glyph unicode=";" horiz-adv-x="387" d="M63 0v301h259v-190q0 -136 -9.5 -197t-38.5 -115q-29 -53 -78 -80t-133 -38v131q60 14 82.5 53.5t22.5 134.5h-105zM63 729v301h261v-301h-261z" />
<glyph unicode="&#x3c;" horiz-adv-x="1024" d="M68 567v246l886 463v-293l-575 -293l575 -295v-291z" />
<glyph unicode="=" d="M55 418v188h844v-188h-844zM55 735v189h844v-189h-844z" />
<glyph unicode="&#x3e;" horiz-adv-x="1024" d="M70 104v293l575 293l-575 295v291l886 -463v-246z" />
<glyph unicode="?" horiz-adv-x="839" d="M18 944v21q0 206 100.5 312.5t293.5 106.5q182 0 284.5 -97.5t102.5 -270.5q0 -124 -54 -215q-19 -33 -36.5 -54.5t-98.5 -109.5q-63 -72 -80 -116t-18 -142h-242q-1 157 22.5 225.5t113.5 167.5q84 88 109.5 139t25.5 127q0 78 -35 121t-98 43q-75 0 -108 -61t-32 -197 h-250zM264 0v250h262v-250h-262z" />
<glyph unicode="@" horiz-adv-x="1443" d="M86 668q0 192 90.5 352.5t247.5 253t346 92.5q162 0 296 -73.5t211 -202t77 -283.5q0 -127 -55 -243.5t-146 -186.5t-190 -70q-52 0 -88 24t-62 77q-44 -50 -85.5 -71.5t-92.5 -21.5q-103 0 -166 81t-63 212q0 172 89 296t212 124q57 0 97.5 -24.5t72.5 -79.5l20 80h150 l-95 -447q-12 -61 -12 -88q0 -32 14 -50t39 -18q65 0 148 93q112 131 112 307q0 201 -140 337t-347 136q-160 0 -292 -79t-208 -217.5t-76 -305.5q0 -168 76.5 -307.5t209.5 -219t294 -79.5q137 0 258 67.5t199 188.5h104q-31 -67 -64.5 -110t-92.5 -89q-190 -150 -408 -150 q-185 0 -342 93t-247.5 253t-90.5 349zM571 541q0 -63 25.5 -98t69.5 -35q42 0 72 39t55 126q18 56 32.5 129.5t14.5 102.5q0 54 -24 85.5t-64 31.5q-70 0 -117 -113q-23 -56 -43.5 -140.5t-20.5 -127.5z" />
<glyph unicode="A" horiz-adv-x="1056" d="M-2 0l360 1366h353l350 -1366h-291l-61 291h-359l-65 -291h-287zM393 510h269l-132 627z" />
<glyph unicode="B" horiz-adv-x="1007" d="M80 0v1366h401q192 0 273 -37q84 -38 130 -118.5t46 -188.5q0 -120 -54.5 -196.5t-158.5 -104.5q125 -23 189.5 -107t64.5 -223q0 -117 -46 -206t-132 -136q-84 -49 -263 -49h-450zM354 203h74q82 0 109.5 3t52.5 15q96 50 96 191q0 146 -111 192q-34 12 -159 14h-62 v-415zM354 805h62q121 0 164 22q75 44 75 158q0 130 -98 166q-41 12 -143 12h-60v-358z" />
<glyph unicode="C" horiz-adv-x="985" d="M49 678q0 219 21.5 342.5t72.5 200.5q113 172 365 172q218 0 324 -107.5t106 -327.5v-47h-268v25v10q-2 129 -40 189.5t-120 60.5q-71 0 -108.5 -46.5t-53.5 -155t-16 -312.5q0 -206 16 -315t53.5 -155t108.5 -46q92 0 131 79.5t39 268.5h270v-29q0 -262 -109.5 -388 t-338.5 -126q-148 0 -241.5 52.5t-145.5 164.5q-37 78 -51.5 187.5t-14.5 302.5z" />
<glyph unicode="D" horiz-adv-x="1034" d="M80 0v1366h371q149 0 235 -23t148 -79q82 -75 116.5 -200.5t34.5 -342.5q0 -259 -39 -418q-22 -90 -76.5 -160t-128.5 -102q-53 -23 -104 -32t-135 -9h-422zM356 203h84q78 0 119.5 12.5t67.5 44.5q40 47 57.5 153.5t17.5 301.5q0 181 -20 272.5t-70 132.5q-28 25 -70 34 t-124 9h-62v-960z" />
<glyph unicode="E" horiz-adv-x="880" d="M80 0v1366h764v-225h-490v-324h459v-221h-459v-371h508v-225h-782z" />
<glyph unicode="F" horiz-adv-x="835" d="M80 0v1366h762v-225h-484v-326h453v-221h-453v-594h-278z" />
<glyph unicode="G" horiz-adv-x="1019" d="M47 664q0 231 22 356t76 207q114 166 365 166q215 0 320.5 -107.5t105.5 -327.5h-266q-3 124 -41.5 182t-118.5 58q-55 0 -94 -31t-56 -88q-30 -107 -30 -409q0 -198 17 -305.5t56 -154t111 -46.5q54 0 95.5 32.5t58.5 88.5q24 89 24 247h-188v193h446v-725h-196l-2 63 q-2 20 -4 84q-34 -86 -109.5 -131t-185.5 -45q-224 0 -318 164q-47 79 -67.5 203.5t-20.5 325.5z" />
<glyph unicode="H" horiz-adv-x="1034" d="M80 0v1366h278v-528h320v528h276v-1366h-276v604h-320v-604h-278z" />
<glyph unicode="I" horiz-adv-x="440" d="M82 0v1366h280v-1366h-280z" />
<glyph unicode="J" horiz-adv-x="843" d="M0 422h256q0 -150 25 -203t94 -53q53 0 81.5 29t37.5 90q4 54 4 161v920h276v-926q0 -117 -10.5 -183.5t-36.5 -113.5q-47 -89 -132.5 -130.5t-219.5 -41.5q-260 0 -340 179q-35 77 -35 272z" />
<glyph unicode="K" horiz-adv-x="1009" d="M80 0v1366h272v-541l353 541h299l-379 -573l422 -793h-312l-282 555l-101 -147v-408h-272z" />
<glyph unicode="L" horiz-adv-x="841" d="M80 0v1366h276v-1139h492v-227h-768z" />
<glyph unicode="M" horiz-adv-x="1380" d="M80 0v1366h405l209 -963l199 963h407v-1366h-260v1135l-245 -1135h-213l-246 1135v-1135h-256z" />
<glyph unicode="N" horiz-adv-x="1064" d="M80 0v1366h317l328 -930v930h260v-1366h-315l-332 942v-942h-258z" />
<glyph unicode="O" horiz-adv-x="1030" d="M49 692q0 185 18.5 302.5t61.5 199.5q103 201 389 201q290 0 393 -213q37 -83 53.5 -195t16.5 -293q0 -318 -57 -477q-43 -121 -148.5 -184.5t-263.5 -63.5q-319 0 -408 254q-55 152 -55 469zM332 696q0 -214 16 -326.5t54 -160t110 -47.5q73 0 112 46t55.5 152.5 t16.5 305.5q0 219 -16 330t-53.5 156.5t-112.5 45.5q-72 0 -110.5 -45t-55 -151t-16.5 -306z" />
<glyph unicode="P" horiz-adv-x="952" d="M80 0v1366h403q206 0 289 -55q78 -50 121 -142.5t43 -210.5q0 -138 -56 -235.5t-159 -140.5q-51 -20 -108.5 -27.5t-166.5 -7.5h-92v-547h-274zM352 750h88q59 0 89 5.5t53 22.5q73 49 73 178q0 136 -80 183q-41 24 -141 24h-82v-413z" />
<glyph unicode="Q" horiz-adv-x="1028" d="M49 672q0 217 22 339.5t76 207.5q111 174 371 174q141 0 234.5 -48t148.5 -151q43 -82 60.5 -191t17.5 -301q0 -447 -102 -561l159 -164l-164 -147l-180 188q-81 -47 -205 -47q-261 0 -362 209q-76 162 -76 492zM332 696q0 -172 6.5 -260t23.5 -149q17 -60 56.5 -92.5 t95.5 -32.5q44 0 76 14q68 41 82 152q22 154 22 391q0 189 -16.5 290t-54.5 144t-109 43q-73 0 -111.5 -44.5t-54.5 -149.5t-16 -306z" />
<glyph unicode="R" horiz-adv-x="1005" d="M80 0v1366h446q196 0 277 -51q71 -44 109 -124t38 -187q0 -276 -227 -328q59 -12 94.5 -28.5t62 -45t39 -81t18.5 -121.5t7 -183q3 -93 11.5 -129.5t37.5 -87.5h-288q-20 37 -27.5 92.5t-11.5 216.5q-3 111 -13 156t-37 72q-22 23 -54.5 32t-98.5 9h-109v-578h-274z M354 770h107q99 0 141 33q72 51 72 172q0 101 -49.5 145.5t-163.5 44.5h-107v-395z" />
<glyph unicode="S" horiz-adv-x="952" d="M23 393v25h268q0 -112 18 -160q43 -94 152 -94q83 0 128.5 48t45.5 134q0 98 -66 152q-26 20 -55.5 33t-202.5 81q-141 57 -207.5 149.5t-66.5 231.5q0 191 112.5 294.5t319.5 103.5q211 -1 313 -99q100 -97 99 -293v-8h-265q-1 107 -37 155t-114 48q-73 0 -113.5 -42.5 t-40.5 -119.5q0 -80 40.5 -125.5t152.5 -87.5q158 -62 219 -93t100 -69q92 -96 92 -270q0 -211 -114.5 -313.5t-349.5 -102.5q-223 0 -325.5 101t-102.5 321z" />
<glyph unicode="T" horiz-adv-x="835" d="M-23 1135v231h881v-231h-301v-1135h-274v1135h-306z" />
<glyph unicode="U" horiz-adv-x="1011" d="M70 483v883h276v-928q0 -127 14 -176q35 -100 146 -100q122 0 149 119q13 43 13 157v928h276v-887q0 -118 -11.5 -189t-39.5 -124q-104 -197 -395 -197q-295 0 -389 207q-22 51 -30.5 117.5t-8.5 189.5z" />
<glyph unicode="V" horiz-adv-x="976" d="M-2 1366h295l201 -1079l198 1079h289l-317 -1366h-351z" />
<glyph unicode="W" horiz-adv-x="1439" d="M4 1366h272l150 -1034l160 1034h270l166 -1034l147 1034h267l-252 -1366h-310l-155 1006l-154 -1006h-309z" />
<glyph unicode="X" horiz-adv-x="974" d="M-16 0l342 696l-318 670h309l175 -440l174 440h301l-320 -672l344 -694h-311l-197 471l-196 -471h-303z" />
<glyph unicode="Y" horiz-adv-x="942" d="M-20 1366h307l190 -545l191 545h295l-355 -829v-537h-274v537z" />
<glyph unicode="Z" horiz-adv-x="872" d="M20 0v201l510 940h-477v225h789v-205l-508 -936h514v-225h-828z" />
<glyph unicode="[" horiz-adv-x="618" d="M113 -342v1708h440v-190h-197v-1328h197v-190h-440z" />
<glyph unicode="\" horiz-adv-x="808" d="M72 1366h211l565 -1708h-211z" />
<glyph unicode="]" horiz-adv-x="618" d="M66 -152h196v1328h-196v190h440v-1708h-440v190z" />
<glyph unicode="^" horiz-adv-x="1024" d="M35 721l315 651h326l315 -651h-262l-217 453l-217 -453h-260z" />
<glyph unicode="_" horiz-adv-x="1024" d="M0 -96h1024v-187h-1024v187z" />
<glyph unicode="`" horiz-adv-x="1024" d="M272 1407h267l102 -277h-176z" />
<glyph unicode="a" horiz-adv-x="864" d="M25 276q0 155 75 230q31 32 84.5 55.5t149.5 46.5q47 11 75 18.5t53.5 15.5t38.5 16.5t23.5 17t14 22.5t5 27.5t1.5 36.5q0 125 -121 125q-69 0 -100 -40.5t-31 -129.5h-238q0 156 68 233q94 107 309 107q252 0 330 -135q19 -34 25 -77t6 -147v-454q0 -180 30 -244h-256 q-20 62 -20 125q-77 -148 -256 -148q-129 0 -197.5 76.5t-68.5 222.5zM283 303q0 -66 29 -102.5t81 -36.5q36 0 68.5 16t52.5 45q17 25 23 54t6 90v147l-33 -12q-9 -3 -20.5 -7.5t-19.5 -7.5t-11 -4q-12 -5 -56 -20q-68 -23 -94 -58t-26 -104z" />
<glyph unicode="b" horiz-adv-x="927" d="M74 0v1366h262v-448q44 72 100.5 104.5t136.5 32.5q160 0 233 -127t73 -408q0 -280 -79 -413.5t-245 -133.5q-169 0 -227 150v-123h-254zM330 512q0 -187 28 -256q34 -82 111 -82q78 0 109.5 77.5t31.5 272.5q0 184 -30 256t-107 72q-91 0 -121 -96q-22 -65 -22 -244z " />
<glyph unicode="c" horiz-adv-x="872" d="M49 510q0 290 96.5 420.5t311.5 130.5q195 0 286 -95t91 -298h-250q-1 115 -30 163t-95 48q-82 0 -115 -81.5t-33 -279.5q0 -207 31.5 -285.5t114.5 -78.5q71 0 102 57t31 188h244q0 -177 -58 -270q-49 -84 -126 -120t-206 -36q-211 0 -303 125.5t-92 411.5z" />
<glyph unicode="d" horiz-adv-x="923" d="M49 512q0 276 64 395q82 148 252 148q78 0 129.5 -29t95.5 -98v438h262v-1366h-250v131q-37 -82 -94 -119t-148 -37q-163 0 -237 128t-74 409zM315 522q0 -199 30 -273.5t110 -74.5q79 0 111 75t32 263q0 193 -30.5 266.5t-110.5 73.5t-111 -72t-31 -258z" />
<glyph unicode="e" horiz-adv-x="886" d="M49 516q0 289 94.5 415t311.5 126q207 0 296 -120.5t89 -401.5v-58h-525q0 -193 29 -262.5t111 -69.5q127 0 133 205h241q0 -109 -45 -207q-83 -170 -335 -170q-214 0 -307 126.5t-93 416.5zM315 635h269q-1 141 -29.5 195.5t-99.5 54.5q-72 0 -106 -60t-34 -190z" />
<glyph unicode="f" horiz-adv-x="503" d="M-27 848v182h136v57q0 119 19 173t71 86q68 40 215 40q65 0 112 -2v-186h-32h-51t-32.5 -7.5t-22 -13.5t-10 -30t-5.5 -46v-71h153v-182h-153v-848h-264v848h-136z" />
<glyph unicode="g" horiz-adv-x="921" d="M49 528q0 284 80 406q38 59 101 91t141 32q82 0 133 -33.5t98 -118.5v125h248v-911q0 -134 -10 -196t-39 -111q-94 -162 -365 -162q-173 0 -260 66.5t-96 207.5h244q9 -102 122 -102q75 0 111.5 44.5t36.5 139.5v150q-50 -75 -103.5 -106.5t-132.5 -31.5q-309 0 -309 510 zM317 532q0 -176 30 -246.5t104 -70.5q78 0 110.5 73t32.5 251q0 167 -32.5 241t-106.5 74q-75 0 -106.5 -72t-31.5 -250z" />
<glyph unicode="h" horiz-adv-x="915" d="M74 0v1366h262v-442q90 133 252 133q89 0 152 -40t89 -112q21 -56 21 -203v-702h-264v649q0 103 -13 135q-21 66 -98 66q-40 0 -74 -21.5t-51 -58.5q-14 -29 -14 -106v-664h-262z" />
<glyph unicode="i" horiz-adv-x="409" d="M74 0v1030h264v-1030h-264zM74 1143v223h264v-223h-264z" />
<glyph unicode="j" horiz-adv-x="409" d="M-72 -152q25 -2 43 -2q72 0 92 50q11 25 11 147v987h264v-975q0 -142 -5.5 -195t-23.5 -89q-31 -63 -95.5 -90t-182.5 -27q-21 0 -103 4v190zM74 1143v223h264v-223h-264z" />
<glyph unicode="k" horiz-adv-x="890" d="M74 0v1366h260v-725l270 389h291l-301 -393l346 -637h-293l-223 428l-92 -123v-305h-258z" />
<glyph unicode="l" horiz-adv-x="407" d="M74 0v1366h262v-1366h-262z" />
<glyph unicode="m" horiz-adv-x="1409" d="M74 0v1030h252v-119q37 69 103 107.5t149 38.5q96 0 152.5 -37t88.5 -121q49 85 111 122.5t151 37.5q82 0 141.5 -31t88.5 -88q18 -33 25 -79.5t7 -131.5v-729h-266v664q0 108 -14 135q-25 51 -90 51q-41 0 -74.5 -23t-48.5 -63q-12 -30 -12 -90v-674h-263v666 q-3 92 -6 110q-9 34 -35.5 54t-64.5 20q-41 0 -74.5 -23t-48.5 -63q-10 -33 -10 -109v-655h-262z" />
<glyph unicode="n" horiz-adv-x="917" d="M74 0v1030h252v-117q63 83 120 114.5t144 31.5q89 0 152.5 -38.5t91.5 -109.5q12 -32 16 -71.5t4 -126.5v-713h-266v653q0 102 -10 133q-22 64 -101 64q-67 0 -103 -44.5t-36 -127.5v-678h-264z" />
<glyph unicode="o" horiz-adv-x="911" d="M49 520q0 284 98 411.5t316 127.5q215 0 307 -124t92 -415q0 -293 -97 -420t-321 -127q-215 0 -305 125t-90 422zM313 516q0 -205 31 -284.5t111 -79.5q79 0 111 82t32 286t-30 281.5t-109 77.5q-82 0 -114 -80t-32 -283z" />
<glyph unicode="p" horiz-adv-x="925" d="M74 -338v1366h252v-127q46 86 98.5 120t140.5 34q163 0 237.5 -124.5t74.5 -395.5q0 -283 -68 -410q-83 -150 -252 -150q-78 0 -122 26t-97 103v-442h-264zM330 530q0 -199 30.5 -276.5t108.5 -77.5t109.5 75.5t31.5 260.5q0 191 -30 266.5t-105 75.5q-87 0 -123 -98 q-22 -71 -22 -226z" />
<glyph unicode="q" horiz-adv-x="925" d="M49 514q0 295 78 416q82 125 238 125q86 0 134.5 -32.5t98.5 -121.5v127h254v-1366h-260v447q-31 -66 -90.5 -101t-139.5 -35q-164 0 -238.5 128.5t-74.5 412.5zM315 508q0 -190 30 -262t108 -72q80 0 112.5 78t32.5 270q0 182 -32.5 257t-110.5 75t-109 -76t-31 -270z " />
<glyph unicode="r" horiz-adv-x="604" d="M74 0v1030h254v-151q51 93 107.5 132.5t137.5 39.5q25 0 43 -4v-250q-39 8 -67 8q-128 0 -187 -84q-17 -25 -22.5 -50t-5.5 -79v-592h-260z" />
<glyph unicode="s" horiz-adv-x="825" d="M29 309v21h237q0 -101 30.5 -143t104.5 -42q63 0 98.5 32.5t35.5 90.5q0 65 -48 101q-22 15 -46.5 25t-145.5 52q-141 49 -198.5 118.5t-57.5 189.5q0 146 96 224.5t275 78.5q246 0 321 -146q31 -55 31 -178h-236q0 86 -25.5 119t-92.5 33q-59 0 -91 -28t-32 -79 q0 -50 29.5 -78t107.5 -53q186 -60 246 -98q118 -68 118 -246q0 -159 -101 -244.5t-290 -85.5t-277.5 81.5t-88.5 254.5z" />
<glyph unicode="t" horiz-adv-x="524" d="M-29 848v182h133v293h263v-293h157v-182h-157v-549q0 -74 20 -96.5t86 -22.5q26 0 51 2v-182q-76 -12 -153 -12q-191 0 -238 82q-29 50 -29 192v586h-133z" />
<glyph unicode="u" horiz-adv-x="917" d="M66 309v721h266v-668q0 -104 23 -143t85 -39q41 0 76.5 22.5t50.5 59.5q13 35 13 109v659h264v-1030h-252v121q-61 -84 -117 -116t-143 -32q-90 0 -153 40.5t-91 115.5q-22 65 -22 180z" />
<glyph unicode="v" horiz-adv-x="800" d="M-16 1030h278l148 -790l139 790h270l-260 -1030h-309z" />
<glyph unicode="w" horiz-adv-x="1300" d="M-10 1030h266l121 -792l135 792h287l135 -792l121 792h256l-221 -1030h-302l-135 770l-133 -770h-307z" />
<glyph unicode="x" horiz-adv-x="823" d="M-16 0l278 535l-266 495h274l142 -323l143 323h272l-262 -495l277 -535h-273l-155 354l-156 -354h-274z" />
<glyph unicode="y" horiz-adv-x="800" d="M-16 1030h280l152 -743l137 743h268l-258 -985q-33 -128 -61.5 -199.5t-72 -116.5t-97.5 -59t-144 -14q-48 0 -125 6v191q56 -5 76 -5q62 0 94.5 32t47.5 110z" />
<glyph unicode="z" horiz-adv-x="739" d="M6 0v203l410 616h-389v209h702v-203l-412 -614h418v-211h-729z" />
<glyph unicode="{" horiz-adv-x="673" d="M63 397v234q60 15 87.5 56t27.5 116v278q0 147 66 213q44 44 102.5 57t214.5 15h62v-197h-27q-100 0 -137 -43q-22 -28 -29.5 -67.5t-7.5 -126.5v-178q0 -99 -25.5 -151.5t-91.5 -94.5q66 -41 91.5 -95.5t25.5 -154.5v-184q3 -105 10 -136t33 -57q15 -15 52 -25t79 -10 h27v-198q-29 2 -64 2q-164 0 -224 15.5t-102 70.5q-55 66 -55 211v264q0 86 -26.5 129t-88.5 57z" />
<glyph unicode="|" horiz-adv-x="1024" d="M365 -342v1708h294v-1708h-294z" />
<glyph unicode="}" horiz-adv-x="673" d="M53 -154h27q98 0 135 43q22 28 29.5 68.5t7.5 126.5v178q0 99 25.5 151.5t91.5 94.5q-66 41 -91.5 95.5t-25.5 154.5v184q0 86 -9 127t-34 66q-13 15 -49.5 24.5t-79.5 9.5h-27v197h64q160 0 220 -16t103 -70q56 -67 56 -211v-264q0 -87 26.5 -130.5t89.5 -56.5v-233 q-62 -15 -89 -55.5t-27 -116.5v-279q0 -147 -66 -213q-44 -44 -103 -57.5t-212 -13.5q-33 0 -62 -2v198z" />
<glyph unicode="~" horiz-adv-x="1366" d="M190 1255q112 275 304 275q68 0 231 -70q79 -35 106.5 -44t53.5 -9q43 0 79 30.5t72 98.5l144 -121q-62 -146 -135 -208t-185 -62q-41 0 -79 12.5t-148 61.5q-107 45 -152 45q-41 0 -75 -29t-72 -98z" />
<glyph unicode="&#xa1;" horiz-adv-x="448" d="M92 0v442l35 543h195l36 -543v-442h-266zM92 1116v250h262v-250h-262z" />
<glyph unicode="&#xa2;" d="M84 698q0 218 53.5 337.5t173.5 172.5q71 30 123 33v178h121v-178q319 -30 322 -369h-234q-3 183 -88 201v-751q91 15 94 231h228q-4 -190 -80 -284t-242 -117v-205h-121v205q-76 7 -160 51q-98 47 -144 168t-46 327zM332 700q0 -196 22 -277.5t80 -98.5v747 q-34 -10 -59 -51q-43 -67 -43 -320z" />
<glyph unicode="&#xa3;" d="M33 152q117 85 172 165t55 168q0 46 -22 97h-197v159h129q-51 98 -68.5 154.5t-17.5 122.5q0 161 111 253.5t305 92.5q205 0 310 -100t103 -295h-245q-2 111 -40.5 163t-119.5 52q-72 0 -114 -42.5t-42 -115.5q0 -84 62 -199q34 -65 41 -86h323v-159h-268q12 -46 12 -78 q0 -88 -49.5 -163.5t-163.5 -160.5q73 37 127 37q42 0 115 -29q71 -24 108 -24q38 0 92.5 22t106.5 58l84 -181q-61 -42 -138 -67t-147 -25q-72 0 -176 35q-72 24 -106 31.5t-72 7.5q-45 0 -86.5 -13.5t-103.5 -49.5z" />
<glyph unicode="&#xa4;" horiz-adv-x="1337" d="M76 1221l143 145l127 -127q144 102 326 102q174 0 319 -100l125 125l144 -145l-125 -121q104 -149 104 -326q0 -168 -98 -317l123 -125l-142 -146l-125 125q-150 -106 -327 -106t-326 104l-125 -123l-141 146l123 123q-99 148 -99 319q0 172 99 320zM336 772 q0 -136 99 -235t235 -99q138 0 236 99t98 237q0 137 -97.5 235.5t-232.5 98.5q-141 0 -239.5 -97.5t-98.5 -238.5z" />
<glyph unicode="&#xa5;" d="M10 1337h291l121 -338q15 -44 36.5 -122.5t24.5 -102.5q13 74 62 236l119 327h282l-223 -538h178v-158h-242l-49 -115v-65h250v-158h-250v-303h-266v303h-248v158h248v65l-47 115h-242v158h176z" />
<glyph unicode="&#xa6;" horiz-adv-x="1024" d="M365 313h294v-655h-294v655zM365 649v717h294v-717h-294z" />
<glyph unicode="&#xa7;" d="M45 600q0 90 38.5 154t131.5 127q-117 78 -117 217q0 149 101 231t286 82q180 0 273 -79.5t92 -233.5h-242q-3 133 -131 133q-55 0 -88 -29.5t-33 -79.5q0 -53 54 -92q26 -19 58.5 -35t201.5 -96q128 -60 184.5 -135.5t56.5 -185.5q0 -86 -35.5 -153t-111.5 -124 q57 -53 81.5 -109t24.5 -137q0 -157 -100.5 -241t-288.5 -84q-200 0 -295.5 88t-95.5 272h254q0 -91 32 -134.5t99 -43.5q58 0 91.5 35.5t33.5 97.5q0 63 -39 96q-28 25 -65.5 45.5t-233.5 118.5q-113 56 -165 126.5t-52 168.5zM270 641q0 -32 17 -61.5t45 -44.5l274 -142 q8 8 8 10q47 43 61.5 68.5t14.5 65.5q0 47 -30 81.5t-101 71.5l-188 98q-59 -48 -80 -78t-21 -69z" />
<glyph unicode="&#xa8;" horiz-adv-x="1024" d="M244 1167v232h215v-232h-215zM567 1167v232h215v-232h-215z" />
<glyph unicode="&#xa9;" horiz-adv-x="1460" d="M20 688q0 192 96.5 354.5t262.5 256.5t362 94q140 0 269.5 -57t223.5 -152.5t150 -226.5t56 -273q0 -145 -56 -276.5t-151 -226.5t-226.5 -151.5t-275.5 -56.5q-194 0 -358 95.5t-258.5 260t-94.5 359.5zM135 688q0 -164 79 -302t216.5 -218t300.5 -80q161 0 298 79.5 t216.5 217t79.5 299.5q0 158 -80 295.5t-215 218t-291 80.5q-271 0 -450 -197q-74 -82 -114 -184t-40 -209zM461 682q0 123 13 193t44 114q67 98 221 98q173 0 230 -114q11 -22 20 -80t6 -84q0 -2 -2 -4h-170q2 12 2 26q0 134 -86 134q-57 0 -77.5 -59t-20.5 -224 q0 -164 20 -223.5t76 -59.5q51 0 71.5 44.5t20.5 150.5v2h172v-21q0 -152 -66 -225.5t-202 -73.5q-89 0 -145 30.5t-88 96.5q-22 42 -30.5 105t-8.5 174z" />
<glyph unicode="&#xaa;" horiz-adv-x="600" d="M37 715q0 89 42.5 131.5t158.5 68.5q94 22 112.5 34t18.5 52q0 68 -72 68q-43 0 -60.5 -22t-17.5 -76h-162q0 110 59.5 160.5t188.5 50.5q155 0 209 -76q25 -40 25 -141v-269q0 -64 4.5 -93.5t17.5 -55.5h-176q-7 26 -12 61q-32 -43 -68.5 -60.5t-91.5 -17.5 q-85 0 -130.5 48t-45.5 137zM213 731q0 -37 17.5 -57.5t48.5 -20.5q50 0 71 35q19 24 19 82v39q0 6 2 45q-32 -15 -84 -33q-41 -12 -57.5 -32t-16.5 -58z" />
<glyph unicode="&#xab;" horiz-adv-x="659" d="M33 412v252l276 237v-227l-147 -133l147 -140v-231zM338 410v252l272 235v-225l-143 -133l143 -133v-234z" />
<glyph unicode="&#xac;" horiz-adv-x="1024" d="M68 336v258h886v-594h-286v336h-600z" />
<glyph unicode="&#xad;" horiz-adv-x="542" d="M0 438v228h543v-228h-543z" />
<glyph unicode="&#xae;" horiz-adv-x="1460" d="M20 688q0 192 96.5 354.5t262.5 256.5t362 94q140 0 269.5 -57t223.5 -152.5t150 -226.5t56 -273q0 -145 -56 -276.5t-151 -226.5t-226.5 -151.5t-275.5 -56.5q-194 0 -358 95.5t-258.5 260t-94.5 359.5zM135 688q0 -164 79 -302t216.5 -218t300.5 -80q161 0 298 79.5 t216.5 217t79.5 299.5q0 158 -80 295.5t-215 218t-291 80.5q-271 0 -450 -197q-74 -82 -114 -184t-40 -209zM481 293v778h269q115 0 163 -29q91 -56 91 -180q0 -71 -25.5 -113t-83.5 -67q46 -16 66.5 -40t29 -71t10.5 -149q2 -56 6.5 -75t26.5 -54h-184q-14 22 -19 55 t-8 125q-3 97 -21.5 121t-90.5 24h-56v-325h-174zM655 739h56q63 0 90.5 25t27.5 82q0 53 -27 75.5t-91 22.5h-56v-205z" />
<glyph unicode="&#xaf;" horiz-adv-x="1024" d="M231 1208v146h560v-146h-560z" />
<glyph unicode="&#xb0;" horiz-adv-x="747" d="M82 1065q0 123 85.5 209t207.5 86t206.5 -86.5t84.5 -210.5q0 -119 -85.5 -204t-205.5 -85q-121 0 -207 85.5t-86 205.5zM205 1065q0 -71 49.5 -121.5t118.5 -50.5q67 0 118.5 51.5t51.5 118.5q0 74 -50 126t-120 52q-67 0 -117.5 -52.5t-50.5 -123.5z" />
<glyph unicode="&#xb1;" d="M55 10v189h844v-189h-844zM55 575v189h328v328h188v-328h328v-189h-328v-305h-188v305h-328z" />
<glyph unicode="&#xb2;" horiz-adv-x="630" d="M47 535q1 89 21.5 148.5t72 121t160.5 156.5q52 45 69 77t17 82q0 109 -80 109q-48 0 -66.5 -34t-17.5 -120h-174q0 127 39 182q63 97 225 97q254 0 254 -236q0 -114 -63 -186q-36 -38 -135 -127q-49 -41 -72 -69t-37 -62h311v-139h-524z" />
<glyph unicode="&#xb3;" horiz-adv-x="630" d="M45 780h176q1 -76 21 -107.5t65 -31.5q88 0 88 123q0 94 -45 119q-22 12 -106 12h-17v121q10 -2 21 -2q78 0 104.5 24.5t26.5 96.5q0 96 -74 96q-43 0 -61.5 -29.5t-18.5 -97.5h-170q0 127 63.5 188.5t192.5 61.5q120 0 183 -55.5t63 -161.5q0 -64 -24 -104.5t-80 -69.5 q66 -22 96.5 -67.5t30.5 -121.5q0 -126 -71 -191t-206 -65q-131 0 -194.5 64.5t-63.5 197.5z" />
<glyph unicode="&#xb4;" horiz-adv-x="1024" d="M383 1133l104 276h265l-195 -276h-174z" />
<glyph unicode="&#xb6;" d="M20 1006q0 102 40 182.5t112 124.5q50 29 108 41t156 12h467v-127h-88v-1470h-162v1470h-127v-1470h-157v886h-27q-142 0 -232 98t-90 253z" />
<glyph unicode="&#xb7;" horiz-adv-x="387" d="M63 379v301h259v-301h-259z" />
<glyph unicode="&#xb8;" horiz-adv-x="1024" d="M295 -393l35 90q83 -27 135 -27q42 0 68 19.5t26 50.5q0 29 -24.5 47t-61.5 18q-34 0 -61 -12l-43 37l102 170h104l-71 -113q40 7 57 7q73 0 120.5 -41.5t47.5 -104.5q0 -80 -64.5 -129t-170.5 -49q-98 0 -199 37z" />
<glyph unicode="&#xb9;" horiz-adv-x="630" d="M84 1104v117q102 -3 152 27.5t61 99.5h131v-813h-178v569h-166z" />
<glyph unicode="&#xba;" horiz-adv-x="591" d="M31 860q0 168 64 245t204 77q141 0 201.5 -75t60.5 -249q0 -175 -63.5 -251.5t-208.5 -76.5q-140 0 -199 76t-59 254zM213 858q0 -118 18 -163.5t64 -45.5t65 47t19 162q0 116 -18 160.5t-64 44.5t-65 -45.5t-19 -159.5z" />
<glyph unicode="&#xbb;" horiz-adv-x="659" d="M51 174v223l144 135l-144 134v231l273 -238v-251zM352 170v227l148 133l-148 138v233l277 -242v-253z" />
<glyph unicode="&#xbc;" horiz-adv-x="1427" d="M29 1104v117q102 -3 152 27.5t61 99.5h131v-813h-178v569h-166zM293 0l575 1337h158l-575 -1337h-158zM782 170v139l281 504h188v-506h84v-137h-84v-170h-172v170h-297zM930 307h151v268z" />
<glyph unicode="&#xbd;" horiz-adv-x="1427" d="M43 1104v117q102 -3 152 27.5t61 99.5h131v-813h-178v569h-166zM252 0l575 1337h158l-575 -1337h-158zM805 0q1 89 21.5 148.5t72 121t160.5 156.5q51 46 68.5 78.5t17.5 81.5q0 108 -80 108q-48 0 -66.5 -33.5t-17.5 -119.5h-174q0 69 8.5 109.5t30.5 72.5q64 94 225 94 q254 0 254 -233q0 -115 -63 -187q-10 -11 -16 -17.5t-18 -17.5t-20 -18.5t-34 -30.5t-48 -43q-49 -40 -71.5 -68t-36.5 -63h311v-139h-524z" />
<glyph unicode="&#xbe;" horiz-adv-x="1427" d="M45 780h176q1 -76 21 -107.5t65 -31.5q88 0 88 123q0 94 -45 119q-22 12 -106 12h-17v121q10 -2 21 -2q78 0 104.5 24.5t26.5 96.5q0 96 -74 96q-43 0 -61.5 -29.5t-18.5 -97.5h-170q0 127 63.5 188.5t192.5 61.5q120 0 183 -55.5t63 -161.5q0 -64 -24 -104.5t-80 -69.5 q66 -22 96.5 -67.5t30.5 -121.5q0 -126 -71 -191t-206 -65q-131 0 -194.5 64.5t-63.5 197.5zM401 0l576 1337h158l-576 -1337h-158zM836 170v139l280 504h189v-506h86v-137h-86v-170h-172v170h-297zM983 307h152v268z" />
<glyph unicode="&#xbf;" horiz-adv-x="839" d="M43 350q0 126 53 215q19 33 36.5 54.5t96.5 109.5q64 72 80.5 115.5t18.5 142.5h243q0 -158 -24 -226.5t-113 -166.5q-83 -89 -108 -139.5t-25 -126.5q0 -78 34.5 -121t98.5 -43q74 0 106.5 61t32.5 197h248q2 -8 2 -21q9 -194 -96 -306.5t-297 -112.5 q-182 0 -284.5 97.5t-102.5 270.5zM315 1116v250h263v-250h-263z" />
<glyph unicode="&#xc0;" horiz-adv-x="1056" d="M-2 0l360 1366h353l350 -1366h-291l-61 291h-359l-65 -291h-287zM260 1667h268l105 -248h-199zM393 510h269l-132 627z" />
<glyph unicode="&#xc1;" horiz-adv-x="1056" d="M-2 0l360 1366h353l350 -1366h-291l-61 291h-359l-65 -291h-287zM393 510h269l-132 627zM438 1419l105 248h268l-174 -248h-199z" />
<glyph unicode="&#xc2;" horiz-adv-x="1056" d="M-2 0l360 1366h353l350 -1366h-291l-61 291h-359l-65 -291h-287zM227 1413l168 262h271l163 -262h-215l-88 141l-90 -141h-209zM393 510h269l-132 627z" />
<glyph unicode="&#xc3;" horiz-adv-x="1056" d="M-2 0l360 1366h353l350 -1366h-291l-61 291h-359l-65 -291h-287zM217 1419q13 114 63 175t128 61q35 0 60.5 -6.5t115.5 -40.5q43 -15 57 -15q47 0 61 70h138q-6 -103 -58.5 -168t-128.5 -65q-32 0 -56.5 6.5t-111.5 40.5q-46 16 -65 16q-50 0 -66 -74h-137zM393 510h269 l-132 627z" />
<glyph unicode="&#xc4;" horiz-adv-x="1056" d="M-2 0l360 1366h353l350 -1366h-291l-61 291h-359l-65 -291h-287zM229 1419v248h240v-248h-240zM393 510h269l-132 627zM590 1419v248h239v-248h-239z" />
<glyph unicode="&#xc5;" horiz-adv-x="1056" d="M-2 0l360 1366h353l350 -1366h-291l-61 291h-359l-65 -291h-287zM311 1622q0 91 64.5 154t156.5 63q88 0 152 -64.5t64 -152.5q0 -90 -64 -154.5t-154 -64.5q-91 0 -155 64t-64 155zM393 510h269l-132 627zM424 1622q0 -46 30.5 -78.5t73.5 -32.5q44 0 75.5 32.5 t31.5 78.5q0 43 -31.5 76t-73.5 33q-44 0 -75 -32t-31 -77z" />
<glyph unicode="&#xc6;" horiz-adv-x="1390" d="M-47 0l518 1366h883v-223h-451v-326h424v-217h-424v-375h469v-225h-729v295h-305l-102 -295h-283zM410 510h233v639h-18z" />
<glyph unicode="&#xc7;" horiz-adv-x="985" d="M49 676q0 220 21.5 344t72.5 201q113 172 369 172q147 0 240 -48.5t143 -150.5q24 -50 33.5 -114t9.5 -169h-268q0 156 -36 220.5t-124 64.5q-60 0 -99.5 -37t-54.5 -108q-24 -120 -24 -367q0 -204 16.5 -313.5t54 -157t107.5 -47.5q92 0 130 79t40 271h270 q9 -530 -405 -545l-53 -84q32 7 57 7q73 0 120.5 -41.5t47.5 -106.5q0 -78 -66 -127t-170 -49q-97 0 -198 37l34 90q83 -27 134 -27q44 0 70 19t26 51q0 29 -24.5 47t-61.5 18q-27 0 -62 -12l-43 37l84 141q-202 12 -299 166q-51 84 -71.5 202.5t-20.5 336.5z" />
<glyph unicode="&#xc8;" horiz-adv-x="880" d="M80 0v1366h764v-225h-490v-324h459v-221h-459v-371h508v-225h-782zM197 1667h268l104 -248h-198z" />
<glyph unicode="&#xc9;" horiz-adv-x="880" d="M80 0v1366h764v-225h-490v-324h459v-221h-459v-371h508v-225h-782zM319 1419l105 248h268l-174 -248h-199z" />
<glyph unicode="&#xca;" horiz-adv-x="880" d="M80 0v1366h764v-225h-490v-324h459v-221h-459v-371h508v-225h-782zM152 1413l167 262h271l164 -262h-215l-88 141l-91 -141h-208z" />
<glyph unicode="&#xcb;" horiz-adv-x="880" d="M80 0v1366h764v-225h-490v-324h459v-221h-459v-371h508v-225h-782zM152 1419v248h239v-248h-239zM512 1419v248h240v-248h-240z" />
<glyph unicode="&#xcc;" horiz-adv-x="440" d="M-41 1667h268l105 -248h-199zM82 0v1366h280v-1366h-280z" />
<glyph unicode="&#xcd;" horiz-adv-x="440" d="M82 0v1366h280v-1366h-280zM117 1419l104 248h268l-174 -248h-198z" />
<glyph unicode="&#xce;" horiz-adv-x="442" d="M-59 1413l168 262h229l164 -262h-215l-68 115l-69 -115h-209zM82 0v1366h280v-1366h-280z" />
<glyph unicode="&#xcf;" horiz-adv-x="440" d="M-55 1419v248h233v-248h-233zM80 0v1366h280v-1366h-280zM260 1419v248h234v-248h-234z" />
<glyph unicode="&#xd0;" horiz-adv-x="1060" d="M-2 641v190h108v535h416q139 0 220 -27.5t141 -95.5q71 -80 100 -199t29 -329q0 -259 -35 -408q-20 -92 -76 -163t-133 -103q-53 -23 -105 -32t-137 -9h-420v641h-108zM383 205h82q78 0 119 12.5t69 44.5q40 52 58 156t18 295q0 95 -4.5 161t-16 118t-29 83t-48 51 t-68 27.5t-92.5 7.5h-88v-330h168v-190h-168v-436z" />
<glyph unicode="&#xd1;" horiz-adv-x="1064" d="M80 0v1366h317l328 -930v930h260v-1366h-315l-332 942v-942h-258zM221 1419q13 114 63 175t128 61q35 0 60.5 -6.5t115.5 -40.5q43 -15 57 -15q48 0 62 70h137q-6 -103 -58.5 -168t-128.5 -65q-32 0 -56.5 6.5t-111.5 40.5q-46 16 -65 16q-50 0 -66 -74h-137z" />
<glyph unicode="&#xd2;" horiz-adv-x="1030" d="M49 692q0 185 18.5 302.5t61.5 199.5q103 201 389 201q290 0 393 -213q37 -83 53.5 -195t16.5 -293q0 -318 -57 -477q-43 -121 -148.5 -184.5t-263.5 -63.5q-319 0 -408 254q-55 152 -55 469zM248 1667h268l105 -248h-199zM332 696q0 -214 16 -326.5t54 -160t110 -47.5 q73 0 112 46t55.5 152.5t16.5 305.5q0 219 -16 330t-53.5 156.5t-112.5 45.5q-72 0 -110.5 -45t-55 -151t-16.5 -306z" />
<glyph unicode="&#xd3;" horiz-adv-x="1030" d="M49 692q0 185 18.5 302.5t61.5 199.5q103 201 389 201q290 0 393 -213q37 -83 53.5 -195t16.5 -293q0 -318 -57 -477q-43 -121 -148.5 -184.5t-263.5 -63.5q-319 0 -408 254q-55 152 -55 469zM332 696q0 -214 16 -326.5t54 -160t110 -47.5q73 0 112 46t55.5 152.5 t16.5 305.5q0 219 -16 330t-53.5 156.5t-112.5 45.5q-72 0 -110.5 -45t-55 -151t-16.5 -306zM412 1419l104 248h268l-174 -248h-198z" />
<glyph unicode="&#xd4;" horiz-adv-x="1030" d="M49 692q0 185 18.5 302.5t61.5 199.5q103 201 389 201q290 0 393 -213q37 -83 53.5 -195t16.5 -293q0 -318 -57 -477q-43 -121 -148.5 -184.5t-263.5 -63.5q-319 0 -408 254q-55 152 -55 469zM215 1413l168 262h270l164 -262h-215l-88 141l-90 -141h-209zM332 696 q0 -214 16 -326.5t54 -160t110 -47.5q73 0 112 46t55.5 152.5t16.5 305.5q0 219 -16 330t-53.5 156.5t-112.5 45.5q-72 0 -110.5 -45t-55 -151t-16.5 -306z" />
<glyph unicode="&#xd5;" horiz-adv-x="1030" d="M49 692q0 185 18.5 302.5t61.5 199.5q103 201 389 201q290 0 393 -213q37 -83 53.5 -195t16.5 -293q0 -318 -57 -477q-43 -121 -148.5 -184.5t-263.5 -63.5q-319 0 -408 254q-55 152 -55 469zM205 1419q13 114 62.5 175t127.5 61q35 0 60.5 -6.5t115.5 -40.5 q43 -15 58 -15q47 0 61 70h137q-6 -103 -58 -168t-128 -65q-32 0 -56.5 6.5t-111.5 40.5q-46 16 -65 16q-50 0 -66 -74h-137zM332 696q0 -214 16 -326.5t54 -160t110 -47.5q73 0 112 46t55.5 152.5t16.5 305.5q0 219 -16 330t-53.5 156.5t-112.5 45.5q-72 0 -110.5 -45 t-55 -151t-16.5 -306z" />
<glyph unicode="&#xd6;" horiz-adv-x="1030" d="M49 692q0 185 18.5 302.5t61.5 199.5q103 201 389 201q290 0 393 -213q37 -83 53.5 -195t16.5 -293q0 -318 -57 -477q-43 -121 -148.5 -184.5t-263.5 -63.5q-319 0 -408 254q-55 152 -55 469zM217 1419v248h240v-248h-240zM332 696q0 -214 16 -326.5t54 -160t110 -47.5 q73 0 112 46t55.5 152.5t16.5 305.5q0 219 -16 330t-53.5 156.5t-112.5 45.5q-72 0 -110.5 -45t-55 -151t-16.5 -306zM578 1419v248h239v-248h-239z" />
<glyph unicode="&#xd7;" d="M84 410l262 260l-262 262l133 133l260 -262l262 262l133 -133l-262 -262l262 -260l-133 -134l-262 261l-260 -261z" />
<glyph unicode="&#xd8;" horiz-adv-x="1030" d="M49 688q0 188 18.5 306t61.5 200q106 201 387 201q130 0 219 -41l62 143l112 -51l-69 -164q77 -77 109 -210.5t32 -379.5q0 -316 -57 -475q-43 -121 -148.5 -184.5t-263.5 -63.5q-135 0 -219 41l-62 -141l-110 49l69 166q-77 83 -109 220.5t-32 383.5zM332 688 q0 -160 8 -256l301 701q-42 65 -127 65q-104 0 -145 -104q-37 -101 -37 -406zM389 233q42 -71 125 -71q71 0 109.5 45.5t55.5 152.5t17 304q0 176 -6 270z" />
<glyph unicode="&#xd9;" horiz-adv-x="1011" d="M70 483v883h276v-928q0 -127 14 -176q35 -100 146 -100q122 0 149 119q13 43 13 157v928h276v-887q0 -118 -11.5 -189t-39.5 -124q-104 -197 -395 -197q-295 0 -389 207q-22 51 -30.5 117.5t-8.5 189.5zM238 1667h268l104 -248h-198z" />
<glyph unicode="&#xda;" horiz-adv-x="1011" d="M70 483v883h276v-928q0 -127 14 -176q35 -100 146 -100q122 0 149 119q13 43 13 157v928h276v-887q0 -118 -11.5 -189t-39.5 -124q-104 -197 -395 -197q-295 0 -389 207q-22 51 -30.5 117.5t-8.5 189.5zM401 1419l105 248h268l-174 -248h-199z" />
<glyph unicode="&#xdb;" horiz-adv-x="1011" d="M70 483v883h276v-928q0 -127 14 -176q35 -100 146 -100q122 0 149 119q13 43 13 157v928h276v-887q0 -118 -11.5 -189t-39.5 -124q-104 -197 -395 -197q-295 0 -389 207q-22 51 -30.5 117.5t-8.5 189.5zM205 1413l168 262h270l164 -262h-215l-88 141l-90 -141h-209z" />
<glyph unicode="&#xdc;" horiz-adv-x="1011" d="M70 483v883h276v-928q0 -127 14 -176q35 -100 146 -100q122 0 149 119q13 43 13 157v928h276v-887q0 -118 -11.5 -189t-39.5 -124q-104 -197 -395 -197q-295 0 -389 207q-22 51 -30.5 117.5t-8.5 189.5zM207 1419v248h239v-248h-239zM567 1419v248h240v-248h-240z" />
<glyph unicode="&#xdd;" horiz-adv-x="942" d="M-20 1366h307l190 -545l191 545h295l-355 -829v-537h-274v537zM367 1419l104 248h268l-174 -248h-198z" />
<glyph unicode="&#xde;" horiz-adv-x="976" d="M80 0v1366h272v-215h154q206 0 293 -61q73 -51 113 -142t40 -205q0 -135 -56.5 -231.5t-160.5 -140.5q-51 -20 -107 -27.5t-163 -7.5h-113v-336h-272zM352 530h94q120 0 173 49.5t53 161.5q0 110 -49.5 162.5t-153.5 52.5h-117v-426z" />
<glyph unicode="&#xdf;" horiz-adv-x="948" d="M74 0v963q0 118 18.5 190.5t59.5 118.5q97 112 321 112q379 0 379 -333q0 -114 -44 -181.5t-138 -95.5q120 -20 174.5 -105.5t54.5 -254.5q0 -194 -78 -310q-43 -61 -111 -89.5t-173 -28.5q-56 0 -111 8v186q30 -6 51 -6q82 0 119 63t37 201q0 144 -58 199 q-23 22 -47.5 29t-87.5 8h-12v182q89 0 125.5 38t36.5 132q0 91 -31.5 134.5t-97.5 43.5q-45 0 -76 -21.5t-43 -62.5q-10 -38 -10 -123v-997h-258z" />
<glyph unicode="&#xe0;" horiz-adv-x="864" d="M25 276q0 155 75 230q31 32 84.5 55.5t149.5 46.5q47 11 75 18.5t53.5 15.5t38.5 16.5t23.5 17t14 22.5t5 27.5t1.5 36.5q0 125 -121 125q-69 0 -100 -40.5t-31 -129.5h-238q0 156 68 233q94 107 309 107q252 0 330 -135q19 -34 25 -77t6 -147v-454q0 -180 30 -244h-256 q-20 62 -20 125q-77 -148 -256 -148q-129 0 -197.5 76.5t-68.5 222.5zM147 1407h267l102 -277h-176zM283 303q0 -66 29 -102.5t81 -36.5q36 0 68.5 16t52.5 45q17 25 23 54t6 90v147l-33 -12q-9 -3 -20.5 -7.5t-19.5 -7.5t-11 -4q-12 -5 -56 -20q-68 -23 -94 -58t-26 -104z " />
<glyph unicode="&#xe1;" horiz-adv-x="864" d="M25 276q0 155 75 230q31 32 84.5 55.5t149.5 46.5q47 11 75 18.5t53.5 15.5t38.5 16.5t23.5 17t14 22.5t5 27.5t1.5 36.5q0 125 -121 125q-69 0 -100 -40.5t-31 -129.5h-238q0 156 68 233q94 107 309 107q252 0 330 -135q19 -34 25 -77t6 -147v-454q0 -180 30 -244h-256 q-20 62 -20 125q-77 -148 -256 -148q-129 0 -197.5 76.5t-68.5 222.5zM283 303q0 -66 29 -102.5t81 -36.5q36 0 68.5 16t52.5 45q17 25 23 54t6 90v147l-33 -12q-9 -3 -20.5 -7.5t-19.5 -7.5t-11 -4q-12 -5 -56 -20q-68 -23 -94 -58t-26 -104zM340 1133l104 276h265 l-195 -276h-174z" />
<glyph unicode="&#xe2;" horiz-adv-x="864" d="M25 276q0 155 75 230q31 32 84.5 55.5t149.5 46.5q47 11 75 18.5t53.5 15.5t38.5 16.5t23.5 17t14 22.5t5 27.5t1.5 36.5q0 125 -121 125q-69 0 -100 -40.5t-31 -129.5h-238q0 156 68 233q94 107 309 107q252 0 330 -135q19 -34 25 -77t6 -147v-454q0 -180 30 -244h-256 q-20 62 -20 125q-77 -148 -256 -148q-129 0 -197.5 76.5t-68.5 222.5zM139 1141l154 274h272l150 -274h-203l-86 162l-90 -162h-197zM283 303q0 -66 29 -102.5t81 -36.5q36 0 68.5 16t52.5 45q17 25 23 54t6 90v147l-33 -12q-9 -3 -20.5 -7.5t-19.5 -7.5t-11 -4 q-12 -5 -56 -20q-68 -23 -94 -58t-26 -104z" />
<glyph unicode="&#xe3;" horiz-adv-x="864" d="M25 276q0 155 75 230q31 32 84.5 55.5t149.5 46.5q47 11 75 18.5t53.5 15.5t38.5 16.5t23.5 17t14 22.5t5 27.5t1.5 36.5q0 125 -121 125q-69 0 -100 -40.5t-31 -129.5h-238q0 156 68 233q94 107 309 107q252 0 330 -135q19 -34 25 -77t6 -147v-454q0 -180 30 -244h-256 q-20 62 -20 125q-77 -148 -256 -148q-129 0 -197.5 76.5t-68.5 222.5zM139 1161q30 240 176 240q34 0 58 -7.5t106 -45.5q39 -17 53 -17q23 0 35.5 17t18.5 57h133q-4 -101 -53.5 -167.5t-120.5 -66.5q-30 0 -52.5 7t-105.5 41q-41 18 -59 18q-45 0 -58 -76h-131zM283 303 q0 -66 29 -102.5t81 -36.5q36 0 68.5 16t52.5 45q17 25 23 54t6 90v147l-33 -12q-9 -3 -20.5 -7.5t-19.5 -7.5t-11 -4q-12 -5 -56 -20q-68 -23 -94 -58t-26 -104z" />
<glyph unicode="&#xe4;" horiz-adv-x="864" d="M25 276q0 155 75 230q31 32 84.5 55.5t149.5 46.5q47 11 75 18.5t53.5 15.5t38.5 16.5t23.5 17t14 22.5t5 27.5t1.5 36.5q0 125 -121 125q-69 0 -100 -40.5t-31 -129.5h-238q0 156 68 233q94 107 309 107q252 0 330 -135q19 -34 25 -77t6 -147v-454q0 -180 30 -244h-256 q-20 62 -20 125q-77 -148 -256 -148q-129 0 -197.5 76.5t-68.5 222.5zM160 1167v232h215v-232h-215zM283 303q0 -66 29 -102.5t81 -36.5q36 0 68.5 16t52.5 45q17 25 23 54t6 90v147l-33 -12q-9 -3 -20.5 -7.5t-19.5 -7.5t-11 -4q-12 -5 -56 -20q-68 -23 -94 -58t-26 -104z M483 1167v232h215v-232h-215z" />
<glyph unicode="&#xe5;" horiz-adv-x="864" d="M25 276q0 155 75 230q31 32 84.5 55.5t149.5 46.5q47 11 75 18.5t53.5 15.5t38.5 16.5t23.5 17t14 22.5t5 27.5t1.5 36.5q0 125 -121 125q-69 0 -100 -40.5t-31 -129.5h-238q0 156 68 233q94 107 309 107q252 0 330 -135q19 -34 25 -77t6 -147v-454q0 -180 30 -244h-256 q-20 62 -20 125q-77 -148 -256 -148q-129 0 -197.5 76.5t-68.5 222.5zM215 1343q0 88 63 149.5t154 61.5q85 0 147 -63.5t62 -149.5q0 -88 -62.5 -150.5t-150.5 -62.5q-89 0 -151 63t-62 152zM283 303q0 -66 29 -102.5t81 -36.5q36 0 68.5 16t52.5 45q17 25 23 54t6 90v147 l-33 -12q-9 -3 -20.5 -7.5t-19.5 -7.5t-11 -4q-12 -5 -56 -20q-68 -23 -94 -58t-26 -104zM324 1341q0 -44 30.5 -76t73.5 -32t73.5 32t30.5 76t-30.5 76.5t-71.5 32.5q-44 0 -75 -32t-31 -77z" />
<glyph unicode="&#xe6;" horiz-adv-x="1345" d="M27 274q0 188 108 256q42 27 87.5 41.5t211.5 55.5q61 13 82 40.5t21 90.5q0 127 -117 127q-66 0 -95.5 -39.5t-29.5 -128.5h-238q-1 172 87 256t270 84q201 0 268 -125q74 123 250 123q193 0 278.5 -123t85.5 -400v-55h-514q0 -142 15 -211q24 -121 118 -121 q61 0 94 52.5t35 152.5h242q-4 -184 -99 -279.5t-274 -95.5q-246 0 -309 183q-67 -181 -287 -181q-290 0 -290 297zM285 301q0 -68 28 -103.5t80 -35.5q68 0 105 46t37 130v172q-11 -5 -22.5 -10t-19.5 -8t-18 -7q-6 -2 -21.5 -7t-21.5 -7l-35 -10q-61 -20 -86.5 -56 t-25.5 -104zM782 633h260l-2 14l-2 55q-6 183 -123 183q-70 0 -101.5 -59t-31.5 -193z" />
<glyph unicode="&#xe7;" horiz-adv-x="872" d="M49 502q0 295 95.5 425t312.5 130q130 0 213 -42.5t127 -131.5q37 -78 37 -215h-250q0 111 -29 158.5t-96 47.5q-80 0 -112 -81t-32 -289q0 -198 31 -275t111 -77q71 0 102 57t31 190h244q4 -205 -87 -314.5t-266 -109.5l-53 -90q30 9 55 9q75 0 122.5 -41t47.5 -107 q0 -78 -65.5 -127t-169.5 -49q-98 0 -199 37l35 90q79 -27 137 -27q40 0 66 19.5t26 50.5q0 29 -24.5 47t-63.5 18q-21 0 -59 -12l-43 35l86 147q-170 12 -250 139t-80 388z" />
<glyph unicode="&#xe8;" horiz-adv-x="886" d="M49 516q0 289 94.5 415t311.5 126q207 0 296 -120.5t89 -401.5v-58h-525q0 -193 29 -262.5t111 -69.5q127 0 133 205h241q0 -109 -45 -207q-83 -170 -335 -170q-214 0 -307 126.5t-93 416.5zM176 1407h266l103 -277h-176zM315 635h269q-1 141 -29.5 195.5t-99.5 54.5 q-72 0 -106 -60t-34 -190z" />
<glyph unicode="&#xe9;" horiz-adv-x="886" d="M49 516q0 289 94.5 415t311.5 126q207 0 296 -120.5t89 -401.5v-58h-525q0 -193 29 -262.5t111 -69.5q127 0 133 205h241q0 -109 -45 -207q-83 -170 -335 -170q-214 0 -307 126.5t-93 416.5zM315 635h269q-1 141 -29.5 195.5t-99.5 54.5q-72 0 -106 -60t-34 -190z M381 1133l104 276h265l-195 -276h-174z" />
<glyph unicode="&#xea;" horiz-adv-x="886" d="M49 516q0 289 94.5 415t311.5 126q207 0 296 -120.5t89 -401.5v-58h-525q0 -193 29 -262.5t111 -69.5q127 0 133 205h241q0 -109 -45 -207q-83 -170 -335 -170q-214 0 -307 126.5t-93 416.5zM168 1141l154 274h272l149 -274h-202l-86 162l-90 -162h-197zM315 635h269 q-1 141 -29.5 195.5t-99.5 54.5q-72 0 -106 -60t-34 -190z" />
<glyph unicode="&#xeb;" horiz-adv-x="886" d="M49 516q0 289 94.5 415t311.5 126q207 0 296 -120.5t89 -401.5v-58h-525q0 -193 29 -262.5t111 -69.5q127 0 133 205h241q0 -109 -45 -207q-83 -170 -335 -170q-214 0 -307 126.5t-93 416.5zM174 1167v232h215v-232h-215zM315 635h269q-1 141 -29.5 195.5t-99.5 54.5 q-72 0 -106 -60t-34 -190zM498 1167v232h215v-232h-215z" />
<glyph unicode="&#xec;" horiz-adv-x="409" d="M-61 1407h266l102 -277h-176zM74 0v1030h264v-1030h-264z" />
<glyph unicode="&#xed;" horiz-adv-x="409" d="M74 0v1030h264v-1030h-264zM117 1133l104 276h264l-194 -276h-174z" />
<glyph unicode="&#xee;" horiz-adv-x="409" d="M-63 1141l153 274h232l149 -274h-203l-61 131l-74 -131h-196zM72 0v1030h264v-1030h-264z" />
<glyph unicode="&#xef;" horiz-adv-x="409" d="M-43 1167v232h207v-232h-207zM72 0v1030h264v-1030h-264zM248 1167v232h207v-232h-207z" />
<glyph unicode="&#xf0;" horiz-adv-x="909" d="M49 518q0 275 88 402q44 63 123 99t170 36q42 0 80 -17l-43 127l-109 -32l-28 94l108 35l-37 112l144 45l53 -114l119 38l28 -94l-104 -30l135 -281q46 -96 65 -187t19 -221q0 -295 -94.5 -422.5t-312.5 -127.5q-221 0 -312.5 121.5t-91.5 416.5zM315 524 q0 -205 30.5 -284.5t107.5 -79.5q78 0 109.5 81.5t31.5 282.5q0 199 -29 274.5t-106 75.5q-80 0 -112 -77.5t-32 -272.5z" />
<glyph unicode="&#xf1;" horiz-adv-x="917" d="M74 0v1030h252v-117q63 83 120 114.5t144 31.5q89 0 152.5 -38.5t91.5 -109.5q12 -32 16 -71.5t4 -126.5v-713h-266v653q0 102 -10 133q-22 64 -101 64q-67 0 -103 -44.5t-36 -127.5v-678h-264zM174 1161q30 240 176 240q34 0 58 -7.5t106 -45.5q39 -17 53 -17 q23 0 35.5 17t18.5 57h133q-4 -101 -53.5 -167.5t-120.5 -66.5q-30 0 -52.5 7t-105.5 41q-41 18 -60 18q-44 0 -57 -76h-131z" />
<glyph unicode="&#xf2;" horiz-adv-x="911" d="M49 520q0 284 98 411.5t316 127.5q215 0 307 -124t92 -415q0 -293 -97 -420t-321 -127q-215 0 -305 125t-90 422zM174 1407h266l103 -277h-176zM313 516q0 -205 31 -284.5t111 -79.5q79 0 111 82t32 286t-30 281.5t-109 77.5q-82 0 -114 -80t-32 -283z" />
<glyph unicode="&#xf3;" horiz-adv-x="911" d="M49 520q0 284 98 411.5t316 127.5q215 0 307 -124t92 -415q0 -293 -97 -420t-321 -127q-215 0 -305 125t-90 422zM313 516q0 -205 31 -284.5t111 -79.5q79 0 111 82t32 286t-30 281.5t-109 77.5q-82 0 -114 -80t-32 -283zM367 1133l104 276h264l-194 -276h-174z" />
<glyph unicode="&#xf4;" horiz-adv-x="911" d="M49 520q0 284 98 411.5t316 127.5q215 0 307 -124t92 -415q0 -293 -97 -420t-321 -127q-215 0 -305 125t-90 422zM168 1141l154 274h272l149 -274h-202l-86 162l-90 -162h-197zM313 516q0 -205 31 -284.5t111 -79.5q79 0 111 82t32 286t-30 281.5t-109 77.5 q-82 0 -114 -80t-32 -283z" />
<glyph unicode="&#xf5;" horiz-adv-x="911" d="M49 520q0 284 98 411.5t316 127.5q215 0 307 -124t92 -415q0 -293 -97 -420t-321 -127q-215 0 -305 125t-90 422zM166 1161q30 240 176 240q34 0 58 -7.5t106 -45.5q39 -17 53 -17q23 0 35 17t18 57h133q-4 -101 -53.5 -167.5t-120.5 -66.5q-30 0 -51.5 6.5t-105.5 41.5 q-40 18 -60 18q-44 0 -57 -76h-131zM313 516q0 -205 31 -284.5t111 -79.5q79 0 111 82t32 286t-30 281.5t-109 77.5q-82 0 -114 -80t-32 -283z" />
<glyph unicode="&#xf6;" horiz-adv-x="911" d="M49 520q0 284 98 411.5t316 127.5q215 0 307 -124t92 -415q0 -293 -97 -420t-321 -127q-215 0 -305 125t-90 422zM186 1167v232h215v-232h-215zM313 516q0 -205 31 -284.5t111 -79.5q79 0 111 82t32 286t-30 281.5t-109 77.5q-82 0 -114 -80t-32 -283zM510 1167v232h215 v-232h-215z" />
<glyph unicode="&#xf7;" d="M55 575v189h844v-189h-844zM346 332q0 54 38.5 91.5t92.5 37.5q52 0 89.5 -38t37.5 -91q0 -54 -37.5 -91.5t-91.5 -37.5t-91.5 37.5t-37.5 91.5zM346 1010q0 52 38.5 89.5t92.5 37.5q52 0 89.5 -38t37.5 -91q0 -54 -37.5 -91.5t-91.5 -37.5t-91.5 38t-37.5 93z" />
<glyph unicode="&#xf8;" horiz-adv-x="911" d="M49 514q0 156 24 255.5t77 164.5q102 125 309 125q112 0 196 -35l70 135l106 -55l-77 -150q58 -66 83 -166.5t25 -267.5q0 -291 -96 -419t-315 -128q-122 0 -195 33l-72 -139l-104 55l80 154q-59 69 -85 171.5t-26 266.5zM311 520q0 -94 4 -153l242 462q-34 52 -98 52 q-82 0 -115 -81t-33 -280zM356 201q39 -54 99 -54q79 0 112 82.5t33 282.5q0 103 -4 150z" />
<glyph unicode="&#xf9;" horiz-adv-x="917" d="M66 309v721h266v-668q0 -104 23 -143t85 -39q41 0 76.5 22.5t50.5 59.5q13 35 13 109v659h264v-1030h-252v121q-61 -84 -117 -116t-143 -32q-90 0 -153 40.5t-91 115.5q-22 65 -22 180zM174 1407h266l103 -277h-176z" />
<glyph unicode="&#xfa;" horiz-adv-x="917" d="M66 309v721h266v-668q0 -104 23 -143t85 -39q41 0 76.5 22.5t50.5 59.5q13 35 13 109v659h264v-1030h-252v121q-61 -84 -117 -116t-143 -32q-90 0 -153 40.5t-91 115.5q-22 65 -22 180zM365 1133l104 276h264l-194 -276h-174z" />
<glyph unicode="&#xfb;" horiz-adv-x="917" d="M66 309v721h266v-668q0 -104 23 -143t85 -39q41 0 76.5 22.5t50.5 59.5q13 35 13 109v659h264v-1030h-252v121q-61 -84 -117 -116t-143 -32q-90 0 -153 40.5t-91 115.5q-22 65 -22 180zM166 1141l153 274h273l149 -274h-202l-86 162l-91 -162h-196z" />
<glyph unicode="&#xfc;" horiz-adv-x="917" d="M66 309v721h266v-668q0 -104 23 -143t85 -39q41 0 76.5 22.5t50.5 59.5q13 35 13 109v659h264v-1030h-252v121q-61 -84 -117 -116t-143 -32q-90 0 -153 40.5t-91 115.5q-22 65 -22 180zM184 1167v232h215v-232h-215zM508 1167v232h215v-232h-215z" />
<glyph unicode="&#xfd;" horiz-adv-x="800" d="M-16 1030h280l152 -743l137 743h268l-258 -985q-33 -128 -61.5 -199.5t-72 -116.5t-97.5 -59t-144 -14q-48 0 -125 6v191q56 -5 76 -5q62 0 94.5 32t47.5 110zM313 1133l105 276h264l-195 -276h-174z" />
<glyph unicode="&#xfe;" horiz-adv-x="925" d="M74 -338v1704h252v-465q46 86 98.5 120t140.5 34q163 0 237.5 -124.5t74.5 -395.5q0 -286 -68 -410q-83 -150 -252 -150q-76 0 -122 27t-97 102v-442h-264zM330 530q0 -199 30.5 -276.5t108.5 -77.5t109.5 75.5t31.5 260.5q0 191 -30 266.5t-105 75.5q-87 0 -123 -98 q-22 -71 -22 -226z" />
<glyph unicode="&#xff;" horiz-adv-x="800" d="M-16 1030h280l152 -743l137 743h268l-258 -985q-33 -128 -61.5 -199.5t-72 -116.5t-97.5 -59t-144 -14q-48 0 -125 6v191q56 -5 76 -5q62 0 94.5 32t47.5 110zM133 1167v232h215v-232h-215zM457 1167v232h215v-232h-215z" />
<glyph unicode="&#x152;" horiz-adv-x="1447" d="M49 711q0 180 17.5 290t58.5 193q104 201 342 201q89 0 141.5 -23t108.5 -86v80h696v-223h-463v-328h436v-219h-436v-373h480v-223h-713v78q-43 -57 -101.5 -82t-148.5 -25q-294 0 -375 281q-43 154 -43 459zM330 709q0 -316 30 -418q17 -62 58.5 -95.5t99.5 -33.5 q51 0 91 24t53 64q28 83 28 416v108q0 240 -18 311q-29 115 -152 115q-114 0 -153 -108q-37 -96 -37 -383z" />
<glyph unicode="&#x153;" horiz-adv-x="1400" d="M49 504q0 308 101 432q105 123 299 123q104 0 169.5 -35t104.5 -109q79 142 268 142q141 0 227.5 -70t112.5 -205q21 -108 21 -305h-514q0 -180 31 -256t104 -76q60 0 94 53.5t35 151.5h241q-18 -377 -366 -377q-199 0 -266 150q-72 -150 -283 -150q-198 0 -288.5 127 t-90.5 404zM313 524q0 -206 31.5 -289t108.5 -83t109 84.5t32 287.5q0 201 -29.5 278t-105.5 77q-80 0 -113 -80t-33 -275zM838 633h260q0 133 -29.5 192.5t-95.5 59.5q-135 0 -135 -252z" />
<glyph unicode="&#x178;" horiz-adv-x="942" d="M-20 1366h307l190 -545l191 545h295l-355 -829v-537h-274v537zM170 1419v248h240v-248h-240zM530 1419v248h240v-248h-240z" />
<glyph unicode="&#x2c6;" horiz-adv-x="1024" d="M223 1141l154 274h272l150 -274h-203l-86 162l-90 -162h-197z" />
<glyph unicode="&#x2dc;" horiz-adv-x="1024" d="M223 1161q30 240 176 240q34 0 58 -7.5t106 -45.5q39 -17 53 -17q23 0 35.5 17t18.5 57h133q-4 -101 -53.5 -167.5t-120.5 -66.5q-30 0 -52.5 7t-105.5 41q-40 18 -59 18q-45 0 -58 -76h-131z" />
<glyph unicode="&#x2000;" horiz-adv-x="919" />
<glyph unicode="&#x2001;" horiz-adv-x="1839" />
<glyph unicode="&#x2002;" horiz-adv-x="919" />
<glyph unicode="&#x2003;" horiz-adv-x="1839" />
<glyph unicode="&#x2004;" horiz-adv-x="613" />
<glyph unicode="&#x2005;" horiz-adv-x="459" />
<glyph unicode="&#x2006;" horiz-adv-x="306" />
<glyph unicode="&#x2007;" horiz-adv-x="306" />
<glyph unicode="&#x2008;" horiz-adv-x="229" />
<glyph unicode="&#x2009;" horiz-adv-x="367" />
<glyph unicode="&#x200a;" horiz-adv-x="102" />
<glyph unicode="&#x2010;" horiz-adv-x="542" d="M0 438v228h543v-228h-543z" />
<glyph unicode="&#x2011;" horiz-adv-x="542" d="M0 438v228h543v-228h-543z" />
<glyph unicode="&#x2012;" horiz-adv-x="542" d="M0 438v228h543v-228h-543z" />
<glyph unicode="&#x2013;" horiz-adv-x="1247" d="M82 444v218h1083v-218h-1083z" />
<glyph unicode="&#x2014;" horiz-adv-x="1269" d="M0 444v218h1270v-218h-1270z" />
<glyph unicode="&#x2018;" horiz-adv-x="413" d="M76 770v203q0 123 12 189t43 112q65 100 205 106v-129q-62 -14 -83.5 -52.5t-21.5 -135.5h105v-293h-260z" />
<glyph unicode="&#x2019;" horiz-adv-x="411" d="M76 754v131q60 12 82 51.5t22 134.5h-104v295h258v-186q0 -136 -9 -196t-38 -112q-29 -55 -76.5 -81t-134.5 -37z" />
<glyph unicode="&#x201a;" horiz-adv-x="411" d="M76 0v293h260v-205q0 -121 -12.5 -186t-44.5 -115q-61 -94 -203 -106v131q60 14 82 53.5t22 134.5h-104z" />
<glyph unicode="&#x201c;" horiz-adv-x="747" d="M76 766v229q0 200 56 283t204 102v-131q-59 -11 -82 -51.5t-23 -136.5h105v-295h-260zM412 766v235q0 194 57 277q32 47 72.5 68t128.5 34v-131q-62 -15 -83 -52.5t-22 -135.5h105v-295h-258z" />
<glyph unicode="&#x201d;" horiz-adv-x="747" d="M76 754v131q60 13 82 52.5t22 133.5h-104v295h260v-223q0 -203 -57.5 -289.5t-202.5 -99.5zM410 752v133q59 11 81.5 51t22.5 135h-104v295h260v-221q0 -107 -12.5 -171t-41.5 -110q-60 -97 -206 -112z" />
<glyph unicode="&#x201e;" horiz-adv-x="747" d="M76 0v295h258v-203q0 -220 -53.5 -305.5t-204.5 -105.5v131q59 14 81.5 54.5t22.5 133.5h-104zM410 0v295h260v-201q0 -116 -9 -176.5t-34 -107.5q-28 -56 -79 -86.5t-138 -42.5v131q61 15 82.5 53.5t23.5 134.5h-106z" />
<glyph unicode="&#x2022;" horiz-adv-x="1366" d="M401 692q0 120 83.5 202.5t205.5 82.5q114 0 196.5 -83.5t82.5 -199.5q0 -118 -83 -201t-200 -83t-201 82.5t-84 199.5z" />
<glyph unicode="&#x2026;" horiz-adv-x="1163" d="M63 0v301h261v-301h-261zM451 0v301h260v-301h-260zM838 0v301h260v-301h-260z" />
<glyph unicode="&#x202f;" horiz-adv-x="367" />
<glyph unicode="&#x2039;" horiz-adv-x="356" d="M33 410v256l272 233v-227l-143 -133l143 -136v-231z" />
<glyph unicode="&#x203a;" horiz-adv-x="356" d="M51 172v225l144 135l-144 134v233l273 -237v-256z" />
<glyph unicode="&#x205f;" horiz-adv-x="459" />
<glyph unicode="&#x2122;" horiz-adv-x="1449" d="M6 1223v143h529v-143h-177v-635h-174v635h-178zM618 588v778h250l115 -514l111 514h252v-778h-166v579l-131 -579h-136l-131 579v-579h-164z" />
<glyph unicode="&#x25fc;" horiz-adv-x="1034" d="M0 0v1034h1034v-1034h-1034z" />
</font>
</defs>
</svg>
